<?xml version="1.0" encoding="UTF-8" standalone="no"?>
<!-- Created with Inkscape (http://www.inkscape.org/) -->

<svg
   width="16"
   height="16"
   id="svg2"
   version="1.1"
   xml:space="preserve"
   xmlns="http://www.w3.org/2000/svg"
   xmlns:svg="http://www.w3.org/2000/svg"
   xmlns:rdf="http://www.w3.org/1999/02/22-rdf-syntax-ns#"
   xmlns:cc="http://creativecommons.org/ns#"
   xmlns:dc="http://purl.org/dc/elements/1.1/"><defs
     id="defs4" /><metadata
     id="metadata7"><rdf:RDF><cc:Work
         rdf:about=""><dc:format>image/svg+xml</dc:format><dc:type
           rdf:resource="http://purl.org/dc/dcmitype/StillImage" /></cc:Work></rdf:RDF></metadata><g
     id="layer1"
     style="display:inline"
     transform="translate(0,-1036.3622)"><path
       id="rect1"
       style="display:inline;stroke-linecap:square;paint-order:markers stroke fill"
       d="m 1,1041.3622 v 6 h 14 v -6 z m 2.1152344,1 a 0.52552506,0.52552506 0 0 1 0.1367187,0.027 l 0.6132813,0.2032 a 1.5744688,1.5744688 0 0 1 0.390625,0.1953 l 0.2304687,0.1562 a 5.2585797,5.2585797 0 0 1 0.3535157,0.2637 l 0.080078,0.066 c 0.094372,0.077 0.2395828,0.2074 0.3261719,0.293 0.1194318,0.118 0.239943,0.2374 0.359375,0.3554 0.086589,0.086 0.2211671,0.2283 0.3007812,0.3204 0.036708,0.042 0.072667,0.086 0.109375,0.1289 0.079622,0.092 0.1948224,0.2521 0.2558594,0.3574 0.048989,0.085 0.082007,0.2515 0.074219,0.373 -0.003,0.047 -0.094238,0.1292 -0.203125,0.1836 -0.050844,0.025 -0.1014998,0.051 -0.1523437,0.076 -0.10888,0.054 -0.2931485,0.1187 -0.4121094,0.1445 -0.095983,0.021 -0.1930791,0.042 -0.2890625,0.062 -0.1189568,0.026 -0.3138064,0.047 -0.4355469,0.047 H 4.3261719 c -0.1217405,0 -0.3125481,-0.035 -0.4257813,-0.08 l -0.1835937,-0.072 c -0.1132271,-0.045 -0.2912356,-0.1279 -0.3984375,-0.1856 l -0.017578,-0.01 c -0.1072033,-0.058 -0.2718864,-0.1665 -0.3671874,-0.2422 -0.088091,-0.07 -0.1775341,-0.141 -0.265625,-0.211 -0.095301,-0.076 -0.2286268,-0.2169 -0.2988282,-0.3164 l -0.1210937,-0.1719 c -0.070201,-0.099 -0.1540487,-0.2735 -0.1875,-0.3906 l -0.035156,-0.123 c -0.033451,-0.1171 -0.034326,-0.3085 -0.00195,-0.4258 l 0.00781,-0.027 c 0.032373,-0.1173 0.1048192,-0.2988 0.1621094,-0.4062 l 0.042969,-0.08 c 0.05729,-0.1074 0.1923809,-0.2395 0.3007813,-0.2949 l 0.3105468,-0.1602 a 0.52552506,0.52552506 0 0 1 0.2675782,-0.057 z m 9.7675776,0 a 0.52552506,0.52552506 0 0 1 0.269532,0.057 l 0.310547,0.1602 c 0.1084,0.055 0.243491,0.1875 0.300781,0.2949 l 0.04297,0.08 c 0.05729,0.1074 0.129736,0.2889 0.162109,0.4062 l 0.0078,0.027 c 0.03237,0.1173 0.0315,0.3087 -0.002,0.4258 l -0.03516,0.123 c -0.03345,0.1171 -0.117299,0.2912 -0.1875,0.3906 l -0.121094,0.1719 c -0.0702,0.1 -0.20548,0.2407 -0.300781,0.3164 -0.08809,0.07 -0.175581,0.1409 -0.263672,0.211 -0.0953,0.076 -0.259984,0.1845 -0.367187,0.2422 l -0.01758,0.01 c -0.107202,0.058 -0.285211,0.1408 -0.398438,0.1856 -0.06122,0.024 -0.122369,0.048 -0.183594,0.072 -0.113233,0.045 -0.30404,0.08 -0.425781,0.08 H 11.14642 c -0.12174,0 -0.318543,-0.021 -0.4375,-0.047 -0.09598,-0.021 -0.191125,-0.042 -0.287109,-0.062 -0.118961,-0.026 -0.303229,-0.09 -0.412109,-0.1445 -0.050844,-0.025 -0.1015001,-0.051 -0.1523441,-0.076 -0.1088868,-0.054 -0.2001255,-0.1368 -0.203125,-0.1836 -0.00779,-0.1215 0.02523,-0.2885 0.074219,-0.373 0.061037,-0.1053 0.176237,-0.2653 0.2558594,-0.3574 0.036708,-0.043 0.072667,-0.087 0.1093747,-0.1289 0.07961,-0.092 0.214192,-0.2348 0.300781,-0.3204 0.119432,-0.118 0.23799,-0.2374 0.357422,-0.3554 0.08659,-0.086 0.233753,-0.2161 0.328125,-0.293 l 0.08008,-0.066 a 5.2585797,5.2585797 0 0 1 0.353516,-0.2637 l 0.230469,-0.1562 a 1.5744688,1.5744688 0 0 1 0.390625,-0.1953 l 0.613281,-0.2032 a 0.52552506,0.52552506 0 0 1 0.134765,-0.027 z" /></g></svg>
