<?xml version="1.0" encoding="UTF-8" standalone="no"?>
<!-- Created with Inkscape (http://www.inkscape.org/) -->

<svg
   width="7"
   height="8"
   id="svg2"
   version="1.1"
   xmlns="http://www.w3.org/2000/svg"
   xmlns:svg="http://www.w3.org/2000/svg"
   xmlns:rdf="http://www.w3.org/1999/02/22-rdf-syntax-ns#"
   xmlns:cc="http://creativecommons.org/ns#"
   xmlns:dc="http://purl.org/dc/elements/1.1/">
  <defs
     id="defs4" />
  <metadata
     id="metadata7">
    <rdf:RDF>
      <cc:Work
         rdf:about="">
        <dc:format>image/svg+xml</dc:format>
        <dc:type
           rdf:resource="http://purl.org/dc/dcmitype/StillImage" />
        <dc:title />
      </cc:Work>
    </rdf:RDF>
  </metadata>
  <g
     id="layer1"
     transform="translate(0,-1044.3622)">
    <rect
       style="fill:#d8424f;fill-opacity:1;stroke:none;display:inline"
       id="rect4244"
       width="7"
       height="8"
       x="-1.1130133e-007"
       y="1044.3622" />
    <g
       id="g4171">
      <path
         style="opacity:1;fill:#ffffff;fill-opacity:1;stroke:none;stroke-width:1;stroke-miterlimit:4;stroke-dasharray:none;stroke-opacity:1"
         d="M 2,1 0.96143694,0.98353403 1,2 1,3 2,3 3,3 3,2 3,1 Z"
         transform="translate(0,1044.3622)"
         id="rect4137" />
      <path
         style="opacity:1;fill:#ffffff;fill-opacity:1;stroke:none;stroke-width:1;stroke-miterlimit:4;stroke-dasharray:none;stroke-opacity:1"
         d="m 5.0022321,1045.3622 1.0385631,-0.016 -0.038563,1.0165 0,1 -1,0 -1,0 0,-1 0,-1 z"
         id="rect4137-2" />
      <path
         style="opacity:1;fill:#ffffff;fill-opacity:1;stroke:none;stroke-width:1;stroke-miterlimit:4;stroke-dasharray:none;stroke-opacity:1"
         d="m 2,1051.3667 -1.00084097,0 L 1,1050.3667 l 0,-1 1,0 1,0 0,1 0,1 z"
         id="rect4137-0" />
      <path
         style="opacity:1;fill:#ffffff;fill-opacity:1;stroke:none;stroke-width:1;stroke-miterlimit:4;stroke-dasharray:none;stroke-opacity:1"
         d="m 5.0022321,1051.3667 1.000841,4e-4 -8.41e-4,-1.0009 0,-1 -1,0 -1,0 0,1 0,1 z"
         id="rect4137-2-5" />
      <rect
         style="opacity:1;fill:#ffffff;fill-opacity:1;stroke:none;stroke-width:1;stroke-miterlimit:4;stroke-dasharray:none;stroke-opacity:1"
         id="rect4141"
         width="1"
         height="2"
         x="3"
         y="1047.3622" />
    </g>
  </g>
</svg>
