<?xml version="1.0" encoding="UTF-8" standalone="no"?>
<!-- Created with Inkscape (http://www.inkscape.org/) -->

<svg
   width="16"
   height="16"
   id="svg2"
   version="1.1"
   xml:space="preserve"
   xmlns="http://www.w3.org/2000/svg"
   xmlns:svg="http://www.w3.org/2000/svg"
   xmlns:rdf="http://www.w3.org/1999/02/22-rdf-syntax-ns#"
   xmlns:cc="http://creativecommons.org/ns#"
   xmlns:dc="http://purl.org/dc/elements/1.1/"><defs
     id="defs4" /><metadata
     id="metadata7"><rdf:RDF><cc:Work
         rdf:about=""><dc:format>image/svg+xml</dc:format><dc:type
           rdf:resource="http://purl.org/dc/dcmitype/StillImage" /></cc:Work></rdf:RDF></metadata><g
     id="layer1"
     style="display:inline"
     transform="translate(0,-1036.3622)"><path
       id="rect1"
       style="display:inline;fill:#ececec;stroke:none;stroke-width:0.25;stroke-linecap:square;paint-order:markers stroke fill;fill-opacity:1"
       d="m 8.0117188,1036.4897 c 0.1462828,0 0.2898997,0.01 0.4316406,0.023 0.7559552,0.083 1.4413549,0.3977 1.9902346,0.8555 l 0.04883,0.043 -0.002,0.6308 0.152343,0.068 -0.160156,0.07 v -0.012 c -0.08361,0.036 -0.168063,0.03 -0.251953,0.076 l 0.002,-0.4786 c -0.0079,0 -0.01537,0 -0.02539,0.016 -0.06772,0.045 -0.166386,0.1097 -0.291016,0.1777 -0.2492618,0.1373 -0.5998292,0.2995 -1.0117188,0.3945 -0.7854592,0.1804 -1.8005799,0.1 -2.6738281,-0.8632 l 0.00781,0.8632 c 0.02418,0.02 0.048596,0.039 0.072266,0.059 l 0.048828,0.043 -0.1374812,0.903 c 0.1313088,0.1125 0.1740236,0.1941 0.3102415,0.2761 -0.1036239,0.036 0.00964,0.062 -0.09464,0.108 -0.03133,-0.02 -0.060857,-0.044 -0.091797,-0.066 l -0.00195,0.1113 c -0.085924,0.04 -0.1736157,0.084 -0.2597656,0.1309 l 0.013672,-1.1074 c -0.0079,0 -0.013418,-0.023 -0.023437,-0.01 -0.067728,0.045 -0.1663857,0.1322 -0.2910156,0.2002 -0.2492608,0.1373 -0.5998282,0.2996 -1.0117187,0.3946 -0.7854593,0.1803 0.8431947,4.7711 -0.030055,3.8083 l -2.6261947,-2.8982 c 0.6117483,0.5699 1.2803218,0.7692 1.9707031,0.7422 0.6410003,-0.025 1.2878823,-0.2433 1.8867187,-0.4961 l -0.00391,-0.3203 0.068359,-0.037 c 0.6770083,-0.3803 -0.1820557,-3.1826 0.4518407,-3.1936 0.1462838,0 3.1220832,-0.058 3.2638241,-0.046 0.7559576,0.083 0.1417027,3.1022 0.6905856,3.56 l 0.04883,0.043 -0.0039,0.3769 c 0.582307,0.4964 1.215118,0.6725 1.865234,0.6465 0.678328,-0.026 -2.6468986,-2.0577 -2.019446,-2.329 l 4.031164,-0.01 c -0.0079,0 -0.01537,0.01 -0.02539,0.018 -0.06773,0.045 -0.164431,0.1078 -0.289062,0.1758 -0.249261,0.1373 -1.330488,2.1325 -1.742377,2.2275 -0.78546,0.1804 -1.071874,-1.733 -1.945123,-2.6963 l 1.679478,2.7764 c -0.08406,-0.067 -1.341843,-0.4695 -1.431703,-0.5294 l -0.49782,-1.4364 c -0.07589,0.031 -0.1217194,0.1692 -0.1992193,0.1992 l -0.033203,-0.1074 c -0.1090399,-0.062 -0.00439,0.084 -0.1200304,0.033 0.1928678,-0.067 0.1654663,-0.3475 0.3504987,-0.4255 l 0.04479,-0.9967 0.01577,0.046 c 0.67701,-0.3803 1.348529,-0.5456 1.982422,-0.5566 0.146283,0 0.291852,0.01 0.433594,0.022 0.755956,0.083 1.439401,0.3977 1.988281,0.8554 l 0.04883,0.045 -0.235173,0.9256 1.619904,0.6622 -0.06398,6.0186 -7.5864097,4.5518 h -0.00195 -0.00586 v -0.014 L 0.00390625,1046.4936 0,1040.2944 c 0.94417906,-0.3893 0.87046921,-0.3422 1.8320312,-0.7363 l -0.021484,-1.3047 0.070312,-0.037 c 0.6770093,-0.3803 1.3641535,-0.6668 1.9980468,-0.6778 0.1462829,-10e-4 0.2898988,0.01 0.4316407,0.025 0.6092624,0.067 1.1732625,0.284 1.65625,0.6055 l -0.00781,-1.0781 4.2152163,0.6992 c 0.677007,-0.3803 -2.7963767,-1.2819 -2.1624823,-1.2929 z m 0.015625,0.2559 c -0.5453485,0.01 -1.1248414,0.1563 -1.7148438,0.4589 0.8353342,0.9981 1.7718695,1.0623 2.5273438,0.8887 0.3819996,-0.088 -2.7168901,-0.9758 -2.4820054,-1.1053 0.1174439,-0.064 2.296908,-0.3174 2.3599379,-0.3594 0.03151,-0.021 1.4008537,0.8905 1.4169937,0.8785 0.008,0 0.02956,-0.072 0.03456,-0.072 -0.4917228,-0.3808 -3.4160485,-0.09 -4.0707388,-0.1632 -0.1281749,-0.019 2.0613724,-0.5223 1.9287606,-0.5223 z m 2.1875002,0.8105 v 0.01 c 0.0044,0.01 0.0048,0.01 0.0098,0.017 v -0.012 c -0.0035,0 -0.25431,-0.4102 -0.25771,-0.4102 z m -6.3203128,0.2461 c -0.5453484,0.01 2.3678382,-0.1227 1.7778328,0.1799 0.8353372,0.9981 -1.72081,1.3414 -0.9653328,1.1678 0.3819997,-0.088 0.714333,-0.2397 0.9492188,-0.3692 0.1174439,-0.064 0.2104076,-0.124 0.2734375,-0.166 0.0315,-0.021 0.056126,-0.039 0.072266,-0.051 0.00808,0 0.012578,-0.014 0.017578,-0.014 -0.4917215,-0.3808 -1.0777285,-0.6555 -1.7324218,-0.7285 -0.1281729,-0.019 -0.2599653,-0.017 -0.3925782,-0.017 z m 6.7217608,0.7861 c -0.545348,0.01 0.419025,-0.1942 -0.17098,0.1084 0.835337,0.998 1.771869,1.0643 2.527344,0.8907 0.382002,-0.088 -1.939757,0.013 -1.704871,-0.1161 0.117444,-0.064 -0.877654,-0.8309 -0.814625,-0.8729 0.03151,-0.021 3.798282,0.4128 3.814422,0.4008 0.008,0 0.349191,0.1527 0.354191,0.1527 -0.491722,-0.3809 -1.440901,0.5576 -2.095596,0.4846 -0.128173,-0.02 -0.246478,-0.5845 -0.37909,-0.5845 z m -4.5362139,0.015 v 0 c 0.0043,0.01 0.00477,0.01 0.00977,0.018 v -0.012 c -0.0034,0 -0.00637,-0.01 -0.00977,-0.01 z m 8.2675779,0.4375 v 0.01 c 0.0044,0.01 0.0048,0 0.0098,0.016 v -0.01 c -0.0035,0 -0.0064,-0.012 -0.0098,-0.012 z m -6.3203122,0.8691 c -0.5453505,0.01 2.5412232,0.194 1.9512186,0.4966 0.8353376,0.998 -1.8941959,1.0247 -1.1387186,0.8511 0.3819996,-0.088 0.7143329,-0.2397 0.9492187,-0.3692 0.1174429,-0.064 0.2104076,-0.124 0.2734375,-0.166 0.03151,-0.021 0.05613,-0.039 0.07227,-0.051 0.0081,0 0.01258,-0.014 0.01758,-0.014 h 0.0039 c -0.4919915,-0.3813 -1.0810468,-0.6536 -1.7363281,-0.7266 -0.1281739,-0.018 -0.2599663,-0.018 -0.3925781,-0.018 z m -6.1875,0.1348 -0.1203042,-0.2673 c 3.4111686,1.5188 2.8118577,-2.0258 4.3135162,-1.4245 l -0.068212,2.5121 c -0.5864355,0.2394 -1.2289359,0.4369 -1.8789063,0.4629 -0.7562002,0.029 -1.567909,-0.2205 -2.2402344,-0.8672 z m 12.8640542,0.8469 -0.108242,-0.015 0.369141,-0.1484 z m -8.4831949,-0.2413 3.9090129,0.212 c 0.61175,0.5699 -2.611114,2.3618 -1.9207317,2.3348 0.6783293,-0.026 -2.0233656,-0.3448 -1.395915,-0.6161 l 3.4095827,-1.6534 c -0.0079,0 -0.01537,0 -0.02539,0.014 -0.06773,0.045 -0.166385,0.1097 -0.2910161,0.1777 -0.2492618,0.1373 -0.5998272,0.2995 -1.0117188,0.3945 -0.7854602,0.1804 -1.8005769,0.1 -2.6738281,-0.8632 z m 3.9941409,0.059 v 0 c 0.0044,0.01 0.0048,0.01 0.0098,0.017 v -0.012 c -0.0035,0 -0.0064,-0.01 -0.0098,-0.01 z m -2.0642763,9.7023 -7.62908332,-4.2358 7.55664062,4.086 -0.029297,-6.3399 z m 7.3103703,-9.2963 0.15858,5.2832 -7.0179554,3.8613 6.8593754,-3.9843 z m -4.986329,0.1797 0.807134,0.3465 0.866693,0.2199 c -0.563166,-0.016 -1.147375,-0.1888 -1.673829,-0.5664 z" /><path
       id="path22"
       style="color:#000000;display:inline;fill:#878787;stroke-width:1.05078;stroke-linecap:square;-inkscape-stroke:none;paint-order:markers stroke fill;fill-opacity:1"
       d="m 10.474267,1038.04 -0.0021,0.1398 0.161453,-0.069 z m -8.6316843,1.511 c -0.97770124,0.4009 -0.89342749,0.3495 -1.84258304436475,0.7409 l 0.004036064365,6.1984 8.33703258,4.5518 v 0.011 h 0.00606 0.00202 l 7.6286567,-4.4662 0.0222,-6.1024 -1.396569,-0.6178 -0.0061,0.6867 0.367306,0.1669 -0.369324,0.1482 -0.004,0.3674 -0.07669,0.035 c -0.659588,0.2906 -1.405254,0.5524 -2.161453,0.5823 h -0.201816 l -1.691221,0.6803 -0.0021,0.2458 c -1.6199922,0.8107 -2.9975053,0.8124 -4.4783041,-0.1915 v -0.096 c -1.5016605,-0.6013 -1.5635967,-0.6099 -4.9747724,-2.1287 l 0.9122098,-0.3591 c -0.089026,-0.057 -0.00332,-0.3961 -0.074672,-0.4528 z m -1.32189693,1.1833 7.52774903,3.1785 0.030273,6.3404 -7.55802142,-4.0864 z m 14.94046223,0.3715 v 5.1612 l -6.8597365,3.9841 -0.014127,-6.355 z" /><path
       id="path25-8-8"
       style="color:#000000;display:inline;fill:#878787;stroke:#878787;stroke-width:0.248943;stroke-linecap:square;stroke-dasharray:none;stroke-opacity:1;paint-order:markers stroke fill;fill-opacity:1"
       d="m 12.145306,1037.9746 c -0.633895,0.011 -1.306844,0.1769 -1.983854,0.5572 l -0.06862,0.037 0.01211,1.4492 c 0.08986,0.06 0.176285,0.125 0.260343,0.192 l -0.01211,-1.2363 c 0.873251,0.9628 1.888605,1.0444 2.674067,0.864 0.411891,-0.095 0.763856,-0.2571 1.013117,-0.3944 0.124631,-0.068 0.222889,-0.1324 0.290615,-0.1774 0.01002,-0.011 0.01633,-0.011 0.02422,-0.015 l -0.02018,1.7934 c -0.627453,0.2713 -1.313598,0.5143 -1.991928,0.5406 -0.650908,0.026 -1.283906,-0.1512 -1.866801,-0.649 l -0.004,0.3484 c 0.591252,0.4249 1.255273,0.592 1.880927,0.5677 0.756202,-0.03 1.501862,-0.2917 2.161453,-0.5822 l 0.07669,-0.035 0.02422,-2.3403 -0.04843,-0.042 c -0.548882,-0.4577 -1.233951,-0.7725 -1.989909,-0.8557 -0.141742,-0.016 -0.285604,-0.026 -0.431887,-0.024 z m 0.01615,0.2629 v 0 c 0.132612,0 0.263348,-4e-4 0.391523,0.019 0.654695,0.073 1.241879,0.3454 1.733603,0.7263 -0.005,0 -0.01013,0.011 -0.01816,0.013 -0.01614,0.012 -0.04114,0.031 -0.07265,0.052 -0.06303,0.042 -0.155008,0.1005 -0.272452,0.1649 -0.234886,0.1295 -0.568553,0.2817 -0.950555,0.3694 -0.755477,0.1737 -1.691403,0.109 -2.52674,-0.889 0.590005,-0.3026 1.170089,-0.4508 1.715439,-0.4592 z m 2.185671,0.7951 c 0.0034,0 0.0067,0.011 0.01013,0.011 v 0.011 c -0.005,-0.011 -0.0058,-0.011 -0.01013,-0.017 z" /><path
       id="path25-8-8-6"
       style="color:#000000;display:inline;fill:#878787;stroke:#878787;stroke-width:0.248943;stroke-linecap:square;stroke-dasharray:none;stroke-opacity:1;paint-order:markers stroke fill;fill-opacity:1"
       d="m 8.0121079,1036.4902 c -0.6338944,0.011 -1.3068458,0.177 -1.9838546,0.5573 l -0.068618,0.038 0.00807,1.1062 c 0.089566,0.06 0.1765212,0.1212 0.260343,0.1878 l -0.00807,-0.8891 c 0.8732495,0.9627 1.8886059,1.0444 2.6740664,0.864 0.4118906,-0.095 0.7638567,-0.2571 1.0131179,-0.3944 0.1246304,-0.068 0.2228904,-0.1324 0.2906144,-0.1774 0.01002,-0.011 0.01633,-0.011 0.02422,-0.015 l -5.48e-4,0.48 c 0.08651,-0.047 0.172055,-0.041 0.258325,-0.081 l 0.0026,-0.756 -0.04843,-0.042 c -0.5488795,-0.4578 -1.2339515,-0.7726 -1.989908,-0.8557 -0.1417415,-0.016 -0.2856041,-0.026 -0.4318869,-0.024 z m 0.016145,0.2547 v 0 c 0.1326123,0 0.2633494,0 0.3915237,0.019 0.6546925,0.073 1.2418796,0.3455 1.7336024,0.7263 -0.005,0 -0.01013,0.011 -0.01816,0.013 -0.01614,0.012 -0.04114,0.031 -0.07265,0.052 -0.063032,0.042 -0.1550093,0.1004 -0.2724528,0.1649 -0.2348856,0.1295 -0.5685545,0.2816 -0.9505548,0.3694 -0.7554763,0.1736 -1.6914045,0.109 -2.5267404,-0.8891 0.5900043,-0.3026 1.1700898,-0.4508 1.7154387,-0.4591 z m 2.1856721,0.8034 c 0.0034,0 0.0067,0.011 0.01013,0.011 v 0.011 c -0.005,-0.011 -0.0058,-0.011 -0.01013,-0.017 z m -3.8768929,1.7794 -0.00202,0.3485 c 0.030942,0.022 0.061509,0.046 0.092836,0.066 0.1042791,-0.046 0.2091909,-0.087 0.3128153,-0.1231 -0.1369488,-0.082 -0.2716484,-0.1791 -0.4036326,-0.2923 z m 3.7638739,0.1565 c -0.1850345,0.078 -0.3742346,0.1542 -0.5671033,0.2212 0.1156436,0.051 0.2279936,0.1091 0.3370332,0.1712 l 0.033887,0.1058 c 0.077502,-0.03 0.1223051,-0.1671 0.1981991,-0.1981 z" /><path
       id="path25-8-0"
       style="color:#000000;display:inline;fill:#878787;stroke:#878787;stroke-width:0.248943;stroke-linecap:square;stroke-dasharray:none;stroke-opacity:1;paint-order:markers stroke fill;fill-opacity:1"
       d="m 3.8789095,1037.5357 c -0.6338957,0.011 -1.3218697,0.2972 -1.9988794,0.6775 l -0.068617,0.037 0.035207,2.201 c 0.6723268,0.6467 1.4839595,0.8974 2.2401613,0.8682 0.6499713,-0.026 1.292474,-0.224 1.87891,-0.4634 l -0.00201,-0.3004 c -0.5988376,0.2528 -1.2459804,0.4717 -1.8869826,0.4966 -0.6903831,0.027 -1.3599956,-0.173 -1.9717456,-0.7429 l -0.033189,-1.6543 c 0.8732515,0.9628 1.9036302,0.9242 2.6890912,0.7439 0.4118917,-0.095 0.7638563,-0.2571 1.0131179,-0.3944 0.1246307,-0.068 0.222888,-0.1324 0.2906155,-0.1774 0.010023,-0.011 0.016323,-0.011 0.024217,-0.015 l -0.014127,1.1065 c 0.086153,-0.047 0.1724014,-0.091 0.2583249,-0.1314 l 0.016145,-1.332 -0.048436,-0.042 c -0.5488823,-0.4578 -1.2339513,-0.7726 -1.989909,-0.8557 -0.1417421,-0.016 -0.2856034,-0.026 -0.431887,-0.024 z m 0.016145,0.263 v 0 c 0.1326125,0 0.2633492,-4e-4 0.3915237,0.019 0.654694,0.073 1.2418793,0.3455 1.7336023,0.7263 -0.00496,0 -0.010126,0.011 -0.018163,0.013 -0.01614,0.012 -0.041137,0.031 -0.072653,0.052 -0.063035,0.042 -0.1550088,0.1004 -0.2724521,0.1649 -0.2348864,0.1295 -0.5685539,0.2816 -0.9505548,0.3694 -0.7554781,0.1736 -1.7064277,0.2292 -2.5417653,-0.7689 0.5900055,-0.3026 1.1851137,-0.571 1.7304636,-0.5793 z m 2.1856708,0.7951 c 0.00341,0 0.00669,0.011 0.010095,0.011 v 0.011 c -0.00496,-0.011 -0.00576,-0.011 -0.010095,-0.017 z" /><path
       id="path25-8"
       style="color:#000000;display:inline;fill:#878787;fill-opacity:1;stroke:#878787;stroke-width:0.248943;stroke-linecap:square;stroke-dasharray:none;stroke-opacity:1;paint-order:markers stroke fill"
       d="m 8.0121076,1039.6411 c -0.6338962,0.011 -1.3068442,0.1769 -1.9838545,0.5572 l -0.068617,0.037 0.020181,2.3517 c 0.6723274,0.6467 1.4839587,0.8975 2.2401613,0.8682 0.7562024,-0.03 1.5018607,-0.2917 2.1614536,-0.5823 l 0.07669,-0.035 0.02422,-2.2766 -0.04843,-0.042 c -0.548883,-0.4578 -1.2339511,-0.7726 -1.9899096,-0.8557 -0.1417422,-0.016 -0.2856032,-0.025 -0.4318869,-0.023 z m 0.016145,0.2671 c 0.1326126,0 0.263349,0 0.3915236,0.019 0.6552824,0.073 1.2436287,0.345 1.7356208,0.7263 h -0.0021 c -0.005,0 -0.01013,0.011 -0.01817,0.013 -0.01614,0.012 -0.04114,0.031 -0.07265,0.052 -0.063035,0.042 -0.155009,0.1005 -0.2724524,0.1649 -0.2348867,0.1295 -0.5685536,0.2817 -0.950555,0.3694 -0.7554788,0.1736 -1.691402,0.109 -2.5267404,-0.889 0.5900061,-0.3026 1.1700883,-0.4509 1.7154389,-0.4592 z m -1.8082743,0.7326 c 0.8732523,0.9628 1.8886045,1.0444 2.6740663,0.864 0.4118921,-0.095 0.7638562,-0.2572 1.013118,-0.3945 0.1246314,-0.068 0.2228884,-0.1324 0.2906154,-0.1773 0.01002,-0.011 0.01633,-0.011 0.02422,-0.015 l -0.02018,1.7299 c -0.6274522,0.2713 -1.3135967,0.5142 -1.9919269,0.5404 -0.6903837,0.027 -1.359995,-0.173 -1.9717455,-0.7429 z m 3.9939457,0.059 c 0.0034,0 0.0067,0.011 0.01013,0.011 v 0.011 c -0.005,-0.011 -0.0058,-0.011 -0.01013,-0.018 z" /><path
       style="color:#000000;display:inline;fill:#008000;fill-opacity:1;stroke:none;stroke-width:0.571014;stroke-linecap:square;-inkscape-stroke:none;paint-order:markers stroke fill"
       d="M 9.4700011,15.152002 5.5299989,8.8479983 a 0.625,0.625 0 0 0 -1.0599978,0 L 0.52999894,15.152002 A 0.55424764,0.55424764 61.002692 0 0 1,16 h 8 a 0.55424764,0.55424764 118.99731 0 0 0.4700011,-0.847998 z"
       id="path40-3"
       transform="matrix(0,0.71309172,-0.83520773,0,14.707073,1044.1742)" /></g></svg>
