<?xml version="1.0" encoding="UTF-8" standalone="no"?>
<!-- Created with Inkscape (http://www.inkscape.org/) -->

<svg
   width="16"
   height="16"
   id="svg2"
   version="1.1"
   xml:space="preserve"
   xmlns:xlink="http://www.w3.org/1999/xlink"
   xmlns="http://www.w3.org/2000/svg"
   xmlns:svg="http://www.w3.org/2000/svg"
   xmlns:rdf="http://www.w3.org/1999/02/22-rdf-syntax-ns#"
   xmlns:cc="http://creativecommons.org/ns#"
   xmlns:dc="http://purl.org/dc/elements/1.1/"><defs
     id="defs4"><linearGradient
       id="linearGradient2"><stop
         style="stop-color:#a4a4a4;stop-opacity:1;"
         offset="0"
         id="stop2" /><stop
         style="stop-color:#adadad;stop-opacity:0;"
         offset="1"
         id="stop3" /></linearGradient><linearGradient
       xlink:href="#linearGradient2"
       id="linearGradient3"
       x1="12"
       y1="9.0829706"
       x2="4.0783348"
       y2="9.0517206"
       gradientUnits="userSpaceOnUse" /></defs><metadata
     id="metadata7"><rdf:RDF><cc:Work
         rdf:about=""><dc:format>image/svg+xml</dc:format><dc:type
           rdf:resource="http://purl.org/dc/dcmitype/StillImage" /></cc:Work></rdf:RDF></metadata><g
     id="layer1"
     style="display:inline"
     transform="translate(0,-1036.3622)"><path
       style="display:inline;fill:url(#linearGradient3);stroke-width:2;stroke-linecap:square;paint-order:markers stroke fill"
       d="m 4.0091529,6.03125 0.00393,5.088957 a 1.3622931,1.3622931 58.234397 0 0 0.7541631,1.217973 6.2675945,6.2675945 12.902726 0 0 2.7785476,0.636511 l 0.9519074,0.0037 a 6.4640069,6.4640069 167.00946 0 0 2.879844,-0.664363 1.1782966,1.1782966 120.82581 0 0 0.638084,-1.0693 L 12.015629,5 11.601696,5.2117792 A 7.4028374,7.4028374 166.56459 0 1 8.2008576,6.0241945 9.4263923,9.4263923 13.701749 0 1 4,5 v 0 z"
       id="path2"
       transform="translate(0,1036.3622)" /><path
       style="display:inline;fill:none;stroke:#a4a4a4;stroke-width:1.15285;stroke-linecap:square;stroke-dasharray:none;stroke-opacity:0.968627;paint-order:markers stroke fill"
       d="m 2.0625,1041.9435 v 5.7198 a 3.2192398,3.2192398 62.178033 0 0 1.4025129,2.6576 6.1005839,6.1005839 17.07978 0 0 3.424189,1.0521 l 1.8660663,0.01 A 7.3160371,7.3160371 163.12125 0 0 12.869653,1050.1315 2.9865864,2.9865864 113.75766 0 0 14,1047.5635 v -5.6714 a 4.1088163,4.1088163 58.207944 0 0 -2.280872,-3.6798 8.1942173,8.1942173 13.006265 0 0 -3.6717752,-0.8481 8.9729399,8.9729399 164.52466 0 0 -4.1975321,1.1621 3.7581572,3.7581572 117.6115 0 0 -1.7873207,3.4172 z"
       id="path1-1"
       transform="matrix(0.86079379,0,0,0.87408611,1.0891885,131.48931)" /></g></svg>
