<?xml version="1.0" encoding="UTF-8" standalone="no"?>
<!-- Created with Inkscape (http://www.inkscape.org/) -->

<svg
   width="9"
   height="9"
   id="svg2"
   version="1.1"
   xmlns:xlink="http://www.w3.org/1999/xlink"
   xmlns="http://www.w3.org/2000/svg"
   xmlns:svg="http://www.w3.org/2000/svg"
   xmlns:rdf="http://www.w3.org/1999/02/22-rdf-syntax-ns#"
   xmlns:cc="http://creativecommons.org/ns#"
   xmlns:dc="http://purl.org/dc/elements/1.1/">
  <defs
     id="defs4">
    <linearGradient
       id="linearGradient4170">
      <stop
         id="stop4172"
         offset="0"
         style="stop-color:#1b867b;stop-opacity:1" />
      <stop
         id="stop4174"
         offset="1"
         style="stop-color:#1b867b;stop-opacity:1" />
    </linearGradient>
    <linearGradient
       id="linearGradient4156">
      <stop
         id="stop4158"
         offset="0"
         style="stop-color:#8e4694;stop-opacity:1" />
      <stop
         id="stop4160"
         offset="1"
         style="stop-color:#8e4694;stop-opacity:1" />
    </linearGradient>
    <linearGradient
       id="linearGradient4153">
      <stop
         id="stop4155"
         offset="0"
         style="stop-color:#4e8fbd;stop-opacity:1;" />
      <stop
         id="stop4157"
         offset="1"
         style="stop-color:#848484;stop-opacity:1" />
    </linearGradient>
    <linearGradient
       xlink:href="#linearGradient4153"
       id="linearGradient3003"
       gradientUnits="userSpaceOnUse"
       gradientTransform="translate(5.09375,0.46493939)"
       x1="-2.2873085"
       y1="1042.5385"
       x2="-2.2873085"
       y2="1047.1511" />
    <linearGradient
       xlink:href="#linearGradient4170"
       id="linearGradient3005"
       gradientUnits="userSpaceOnUse"
       x1="4.8479562"
       y1="1040.7981"
       x2="10.96875"
       y2="1040.7981"
       gradientTransform="matrix(1.0712324,0,0,1.0282379,-0.17376606,-30.208105)" />
    <linearGradient
       xlink:href="#linearGradient4156"
       id="linearGradient3007"
       gradientUnits="userSpaceOnUse"
       x1="14.683416"
       y1="11.370661"
       x2="9.6459417"
       y2="11.370661"
       gradientTransform="matrix(1.1965831,0,0,1.0284752,-2.6774402,1036.0687)" />
  </defs>
  <metadata
     id="metadata7">
    <rdf:RDF>
      <cc:Work
         rdf:about="">
        <dc:format>image/svg+xml</dc:format>
        <dc:type
           rdf:resource="http://purl.org/dc/dcmitype/StillImage" />
        <dc:title />
      </cc:Work>
    </rdf:RDF>
  </metadata>
  <g
     id="layer1"
     style="display:inline"
     transform="translate(0,-1043.3622)">
    <g
       id="g2998"
       transform="matrix(0.63852412,0,0,0.63852412,-0.37560512,381.32698)">
      <path
         id="path3986"
         d="m 2.1047065,1038.3486 1.6156248,0 -0.017303,9.4183 1.5427857,0 -2.3416018,3.2053 -2.32489384,-3.1832 1.53018214,0 z"
         style="fill:url(#linearGradient3003);fill-opacity:1;stroke:none" />
      <path
         id="path4758"
         d="m 8.1282847,1036.8326 -2.8319879,-0.01 c 0,0 -0.016012,0.9967 0.1023433,1.2012 0.1183555,0.2044 0.1325288,0.393 0.5634397,0.393 2.0148165,0 2.166765,1.5161 0.6932606,1.5161 -0.325824,0.087 -0.7435496,0.013 -1.0867808,0.5352 -0.235487,0.3915 -0.2972229,1.1629 -0.1788672,1.5263 0.1183555,0.3636 0.793908,1.1356 1.4330281,1.1356 0.6391201,0 4.7535935,-0.032 4.7535935,-0.032 l 0.06626,-3.7409 0,-0.9505 c 0,-0.6754 -0.918496,-1.4742 -1.581287,-1.5423 -0.3313952,-0.034 -1.9330021,-0.032 -1.9330021,-0.032 z m -0.4916199,3.1613 c 0.633795,0 0.7921194,0.3156 0.7921194,0.7835 0,0.468 -0.175628,0.8331 -0.8094226,0.8331 -0.6337949,0 -0.7736856,-0.3305 -0.7736856,-0.7985 0,-0.4679 0.1571939,-0.8181 0.7909888,-0.8181 z"
         style="fill:url(#linearGradient3005);fill-opacity:1;stroke:none" />
      <path
         id="path4771"
         d="m 8.4542208,1044.6611 6.2136342,0 0,1.4317 -3.117318,2.7406 0,0.5682 1.598127,0 1.545632,-1.1043 0,2.6134 -6.2929572,0 0,-1.7953 3.1414272,-2.8651 -1.5491335,0 -1.6187346,1.0015 z"
         style="fill:url(#linearGradient3007);fill-opacity:1;stroke:none" />
    </g>
  </g>
</svg>
