<?xml version="1.0" encoding="UTF-8" standalone="no"?>
<!-- Created with Inkscape (http://www.inkscape.org/) -->

<svg
   width="350"
   height="260"
   id="svg2"
   version="1.1"
   xmlns="http://www.w3.org/2000/svg"
   xmlns:svg="http://www.w3.org/2000/svg"
   xmlns:rdf="http://www.w3.org/1999/02/22-rdf-syntax-ns#"
   xmlns:cc="http://creativecommons.org/ns#"
   xmlns:dc="http://purl.org/dc/elements/1.1/">
  <defs
     id="defs4" />
  <metadata
     id="metadata7">
    <rdf:RDF>
      <cc:Work
         rdf:about="">
        <dc:format>image/svg+xml</dc:format>
        <dc:type
           rdf:resource="http://purl.org/dc/dcmitype/StillImage" />
      </cc:Work>
    </rdf:RDF>
  </metadata>
  <g
     id="layer1"
     style="display:inline"
     transform="translate(0,-1036.3622)">
    <path
       id="path8722-7-7"
       style="display:inline;opacity:0.6;fill:#999999;fill-opacity:1;stroke:#898989;stroke-width:15.9999;stroke-linecap:square;stroke-linejoin:round;stroke-miterlimit:2;stroke-dasharray:none;stroke-opacity:1"
       d="m 123,1044.3622 v 50 H 73.078125 v 72 72 H 123 v 50 h 69 v -244 z" />
    <path
       d="m 7.8984119,1166.1771 v 24.8148 H 57.078981 v -49.6297 H 7.8984119 v 24.8149"
       style="display:inline;opacity:0.6;fill:#8d8d8d;fill-opacity:1;stroke:#8c8c8c;stroke-width:16;stroke-linecap:square;stroke-linejoin:miter;stroke-miterlimit:4;stroke-dasharray:none;stroke-opacity:1"
       id="path8722-7" />
    <path
       d="m 311.00005,1166.1771 v 24.8148 h 30.75288 v -49.6297 h -30.75288 v 24.8149"
       style="display:inline;fill:#8d8d8d;fill-opacity:1;stroke:#8d8d8d;stroke-width:16.0001;stroke-linecap:square;stroke-linejoin:miter;stroke-miterlimit:4;stroke-dasharray:none;stroke-opacity:1;opacity:0.6"
       id="path8722-7-0" />
    <path
       d="m 200,1089.3772 c 0,0 25.13487,-7e-4 34.23683,3e-4 13.04486,5e-4 23.54669,10.3223 23.54669,23.1429 v 1.6725 h 17.59998 c 10.87072,0 19.62224,7.1455 19.62224,16.0218 v 21.2005 l -10e-6,37.2231 -1e-5,8.7893 c 0,8.8763 -7.82529,16.2339 -19.62224,16.0218 -11.79695,-0.211 -17.59997,0 -17.59997,0 v 1.6725 c 0,12.8206 -10.50183,23.1398 -23.54669,23.1423 h -14.94108 c -3.23604,0 -19.29574,-0.095 -19.29574,-0.095"
       style="display:inline;opacity:0.6;fill:#b0b0b0;fill-opacity:1;stroke:#8a8a8a;stroke-width:16;stroke-linecap:butt;stroke-linejoin:miter;stroke-miterlimit:4;stroke-dasharray:none;stroke-opacity:1"
       id="rect8645-2-5" />
  </g>
</svg>
