<?xml version="1.0" encoding="UTF-8" standalone="no"?>
<!-- Created with Inkscape (http://www.inkscape.org/) -->

<svg
   xmlns:dc="http://purl.org/dc/elements/1.1/"
   xmlns:cc="http://creativecommons.org/ns#"
   xmlns:rdf="http://www.w3.org/1999/02/22-rdf-syntax-ns#"
   xmlns:svg="http://www.w3.org/2000/svg"
   xmlns="http://www.w3.org/2000/svg"
   xmlns:xlink="http://www.w3.org/1999/xlink"
   xmlns:sodipodi="http://sodipodi.sourceforge.net/DTD/sodipodi-0.dtd"
   xmlns:inkscape="http://www.inkscape.org/namespaces/inkscape"
   version="1.1"
   id="svg3714"
   width="16"
   height="16"
   viewBox="0 0 16 16"
   sodipodi:docname="repositories.svg"
   inkscape:version="0.92.4 (5da689c313, 2019-01-14)">
  <metadata
     id="metadata3720">
    <rdf:RDF>
      <cc:Work
         rdf:about="">
        <dc:format>image/svg+xml</dc:format>
        <dc:type
           rdf:resource="http://purl.org/dc/dcmitype/StillImage" />
        <dc:title></dc:title>
      </cc:Work>
    </rdf:RDF>
  </metadata>
  <defs
     id="defs3718">
    <linearGradient
       inkscape:collect="always"
       xlink:href="#linearGradient4457"
       id="linearGradient4331-6-9-0"
       gradientUnits="userSpaceOnUse"
       gradientTransform="matrix(0.28012724,0,0,0.22022214,-183.9124,-90.958345)"
       x1="673.60974"
       y1="460.61569"
       x2="696.68384"
       y2="460.61569" />
    <linearGradient
       id="linearGradient4457">
      <stop
         style="stop-color:#7e9bcb;stop-opacity:1"
         offset="0"
         id="stop4459" />
      <stop
         id="stop4463"
         offset="0.34707329"
         style="stop-color:#ecebf2;stop-opacity:1" />
      <stop
         style="stop-color:#5e82c4;stop-opacity:1"
         offset="1"
         id="stop4471" />
    </linearGradient>
    <linearGradient
       inkscape:collect="always"
       xlink:href="#linearGradient4347"
       id="linearGradient4353-6-8"
       x1="-8.1449289"
       y1="1055.5972"
       x2="-8.0524807"
       y2="1052.5642"
       gradientUnits="userSpaceOnUse"
       gradientTransform="matrix(1.0291969,0,0,0.87242399,16.2051,-913.12824)" />
    <linearGradient
       inkscape:collect="always"
       id="linearGradient4347">
      <stop
         style="stop-color:#2a69b7;stop-opacity:1"
         offset="0"
         id="stop4349" />
      <stop
         style="stop-color:#296fc4;stop-opacity:1"
         offset="1"
         id="stop4351" />
    </linearGradient>
    <linearGradient
       inkscape:collect="always"
       xlink:href="#linearGradient4371"
       id="linearGradient4377-6-9"
       x1="3.5805521"
       y1="1063.3384"
       x2="3.4927168"
       y2="1052.5967"
       gradientUnits="userSpaceOnUse"
       gradientTransform="matrix(1.0161548,0,0,1.0215758,3.9353804,-1070.1865)" />
    <linearGradient
       inkscape:collect="always"
       id="linearGradient4371">
      <stop
         style="stop-color:#2b5790;stop-opacity:1"
         offset="0"
         id="stop4373" />
      <stop
         style="stop-color:#296fc4;stop-opacity:1"
         offset="1"
         id="stop4375" />
    </linearGradient>
    <linearGradient
       inkscape:collect="always"
       xlink:href="#linearGradient4371"
       id="linearGradient4377-6-9-3"
       x1="3.5805521"
       y1="1063.3384"
       x2="3.4927168"
       y2="1052.5967"
       gradientUnits="userSpaceOnUse"
       gradientTransform="matrix(1.0161548,0,0,1.0215758,7.8799421,-1072.2934)" />
    <linearGradient
       inkscape:collect="always"
       xlink:href="#linearGradient4457"
       id="linearGradient4331-6-9-0-5"
       gradientUnits="userSpaceOnUse"
       gradientTransform="matrix(0.28012724,0,0,0.22022214,-179.96784,-93.065264)"
       x1="673.60974"
       y1="460.61569"
       x2="696.68384"
       y2="460.61569" />
    <linearGradient
       inkscape:collect="always"
       xlink:href="#linearGradient4371"
       id="linearGradient4377-6-9-37"
       x1="3.5805521"
       y1="1063.3384"
       x2="3.4927168"
       y2="1052.5967"
       gradientUnits="userSpaceOnUse"
       gradientTransform="matrix(1.0161548,0,0,1.0215758,0.99081993,-1074.2934)" />
    <linearGradient
       inkscape:collect="always"
       xlink:href="#linearGradient4347"
       id="linearGradient4353-6-8-9"
       x1="-8.1449289"
       y1="1055.5972"
       x2="-8.0524807"
       y2="1052.5642"
       gradientUnits="userSpaceOnUse"
       gradientTransform="matrix(1.0291969,0,0,0.87242399,13.260539,-917.23516)" />
    <linearGradient
       inkscape:collect="always"
       xlink:href="#linearGradient4457"
       id="linearGradient4331-6-9-0-8"
       gradientUnits="userSpaceOnUse"
       gradientTransform="matrix(0.28012724,0,0,0.22022214,-186.85696,-95.065264)"
       x1="673.60974"
       y1="460.61569"
       x2="696.68384"
       y2="460.61569" />
    <linearGradient
       inkscape:collect="always"
       xlink:href="#linearGradient4347"
       id="linearGradient4353-6-8-9-3"
       x1="-8.1449289"
       y1="1055.5972"
       x2="-8.0524807"
       y2="1052.5642"
       gradientUnits="userSpaceOnUse"
       gradientTransform="matrix(1.0291969,0,0,0.87242399,1.50882,-917.23425)" />
    <linearGradient
       inkscape:collect="always"
       xlink:href="#linearGradient4347"
       id="linearGradient4458"
       gradientUnits="userSpaceOnUse"
       gradientTransform="matrix(1.0291969,0,0,0.87242399,1.50882,-917.23425)"
       x1="-8.1449289"
       y1="1055.5972"
       x2="-8.0524807"
       y2="1052.5642" />
  </defs>
  <sodipodi:namedview
     pagecolor="#ffffff"
     bordercolor="#666666"
     borderopacity="1"
     objecttolerance="10"
     gridtolerance="10"
     guidetolerance="10"
     inkscape:pageopacity="0"
     inkscape:pageshadow="2"
     inkscape:window-width="1920"
     inkscape:window-height="1017"
     id="namedview3716"
     showgrid="true"
     inkscape:snap-bbox="true"
     inkscape:bbox-nodes="true"
     inkscape:snap-nodes="false"
     inkscape:zoom="29.5"
     inkscape:cx="10.576271"
     inkscape:cy="9.2593685"
     inkscape:window-x="-8"
     inkscape:window-y="-8"
     inkscape:window-maximized="1"
     inkscape:current-layer="svg3714">
    <inkscape:grid
       type="xygrid"
       id="grid3724" />
  </sodipodi:namedview>
  <path
     style="display:inline;fill:url(#linearGradient4331-6-9-0-8);fill-opacity:1;stroke:none;stroke-width:1"
     d="m 5.0397509,1.2424104 c -2.21347,0 -3.984312,0.5265839 -3.984312,1.1839101 v 7.8922365 c 0,0.657405 1.770842,1.184067 3.984312,1.184067 2.213473,0 4.015687,-0.526662 4.015687,-1.184067 V 2.4263205 c 0,-0.6573262 -1.802214,-1.1839101 -4.015687,-1.1839101 z"
     id="path3868-1-3-3-4-1-7"
     inkscape:connector-curvature="0"
     sodipodi:nodetypes="sccsccs" />
  <path
     style="display:inline;fill:none;stroke:url(#linearGradient4353-6-8-9);stroke-width:1.11513841;stroke-opacity:1;opacity:0.544"
     d="M 8.3591408 1.9990712 A 3.5043826 1.0021712 0 0 1 8.5598216 2.3333399 L 8.5598216 2.3333399 L 8.5598216 2.3333399 A 3.5043826 1.0021712 0 0 1 5.055439 3.3355111 A 3.5043826 1.0021712 0 0 1 1.5510564 2.3333399 A 3.5043826 1.0021712 0 0 1 1.7517192 1.9990858 "
     id="path4414" />
  <path
     style="display:inline;fill:none;stroke:url(#linearGradient4353-6-8-9);stroke-width:1.11513841;stroke-opacity:1"
     d="M 1.7517192 1.9990858 A 3.5043826 1.0021712 0 0 1 5.055439 1.3311688 A 3.5043826 1.0021712 0 0 1 8.3591408 1.9990712 "
     id="path3868-67-2-9-0" />
  <path
     style="display:inline;fill:none;stroke:url(#linearGradient4377-6-9-37);stroke-width:0.99789387;stroke-miterlimit:4;stroke-dasharray:none;stroke-opacity:1"
     d="m 5.0414899,1.2851531 c -1.968046,0 -3.542543,0.5242268 -3.542543,1.1784887 v 7.8583722 c 0,0.654576 1.574497,1.179039 3.542543,1.179039 1.96805,0 3.570441,-0.524463 3.570441,-1.179039 V 2.4636418 c 0,-0.6542619 -1.602391,-1.1784887 -3.570441,-1.1784887 z"
     id="path3868-1-4-6-9-1-0"
     inkscape:connector-curvature="0"
     sodipodi:nodetypes="sccsccs" />
  <g
     id="g14104"
     transform="matrix(0.29356321,0,0,0.259488,-185.75087,-100.09491)"
     style="display:inline;fill:#ffffff;stroke:#ffffff;stroke-width:1.19658828" />
  <g
     transform="matrix(0.29356321,0,0,0.259488,-185.75087,-100.09491)"
     style="display:inline;stroke-width:1.19658828"
     id="g6258"
     mask="none" />
  <g
     id="layer3"
     inkscape:label="Layer 2"
     transform="matrix(0.8888888,0,0,0.78571147,-53.615375,-6.4253219)"
     style="stroke-width:1.19658828" />
  <path
     style="display:inline;fill:url(#linearGradient4331-6-9-0-5);fill-opacity:1;stroke:none;stroke-width:1"
     d="m 11.928873,3.2424109 c -2.2134699,0 -3.9843119,0.5265839 -3.9843119,1.1839101 v 7.892236 c 0,0.657405 1.770842,1.184067 3.9843119,1.184067 2.213473,0 4.015687,-0.526662 4.015687,-1.184067 V 4.426321 c 0,-0.6573262 -1.802214,-1.1839101 -4.015687,-1.1839101 z"
     id="path3868-1-3-3-4-1-2"
     inkscape:connector-curvature="0"
     sodipodi:nodetypes="sccsccs" />
  <path
     style="display:inline;fill:none;stroke:url(#linearGradient4377-6-9-3);stroke-width:0.99789387;stroke-miterlimit:4;stroke-dasharray:none;stroke-opacity:1"
     d="m 11.930612,3.2851536 c -1.9680459,0 -3.5425429,0.5242268 -3.5425429,1.1784887 v 7.8583717 c 0,0.654576 1.574497,1.179039 3.5425429,1.179039 1.96805,0 3.570441,-0.524463 3.570441,-1.179039 V 4.4636423 c 0,-0.6542619 -1.602391,-1.1784887 -3.570441,-1.1784887 z"
     id="path3868-1-4-6-9-1-4"
     inkscape:connector-curvature="0"
     sodipodi:nodetypes="sccsccs" />
  <path
     style="display:inline;fill:url(#linearGradient4331-6-9-0);fill-opacity:1;stroke:none;stroke-width:1"
     d="m 7.9843115,5.3493298 c -2.21347,0 -3.9843116,0.5265839 -3.9843116,1.1839101 v 7.8922361 c 0,0.657405 1.7708416,1.184067 3.9843116,1.184067 2.2134735,0 4.0156875,-0.526662 4.0156875,-1.184067 V 6.5332399 c 0,-0.6573262 -1.802214,-1.1839101 -4.0156875,-1.1839101 z"
     id="path3868-1-3-3-4-1"
     inkscape:connector-curvature="0"
     sodipodi:nodetypes="sccsccs" />
  <ellipse
     style="display:inline;fill:none;stroke:url(#linearGradient4353-6-8);stroke-width:1.11513841;stroke-opacity:1"
     id="path3868-67-2-9"
     cx="7.9999995"
     cy="6.4402595"
     rx="3.5043826"
     ry="1.0021712" />
  <path
     style="display:inline;fill:none;stroke:url(#linearGradient4377-6-9);stroke-width:0.99789387;stroke-miterlimit:4;stroke-dasharray:none;stroke-opacity:1"
     d="m 7.9860511,5.3920725 c -1.9680461,0 -3.5425428,0.5242268 -3.5425428,1.1784887 v 7.8583718 c 0,0.654576 1.5744967,1.179039 3.5425428,1.179039 1.9680496,0 3.5704409,-0.524463 3.5704409,-1.179039 V 6.5705612 c 0,-0.6542619 -1.6023913,-1.1784887 -3.5704409,-1.1784887 z"
     id="path3868-1-4-6-9-1"
     inkscape:connector-curvature="0"
     sodipodi:nodetypes="sccsccs" />
  <g
     id="g4462"
     transform="translate(18.634328,2.0116929)">
    <path
       id="path4414-1"
       d="m -3.392578,1.9999854 a 3.5043826,1.0021712 0 0 1 0.200681,0.3342687 v 0 0 A 3.5043826,1.0021712 0 0 1 -6.69628,3.3364253 3.5043826,1.0021712 0 0 1 -10.200663,2.3342541 3.5043826,1.0021712 0 0 1 -10,2"
       style="display:inline;opacity:0.544;fill:none;stroke:url(#linearGradient4458);stroke-width:1.11513841;stroke-opacity:1"
       inkscape:connector-curvature="0" />
    <path
       id="path3868-67-2-9-0-6"
       d="m -10,2 a 3.5043826,1.0021712 0 0 1 3.30372,-0.667917 3.5043826,1.0021712 0 0 1 3.303702,0.6679024"
       style="display:inline;fill:none;stroke:url(#linearGradient4353-6-8-9-3);stroke-width:1.11513841;stroke-opacity:1"
       inkscape:connector-curvature="0" />
  </g>
</svg>
