<?xml version="1.0" encoding="UTF-8" standalone="no"?>
<!-- Created with Inkscape (http://www.inkscape.org/) -->

<svg
   width="16"
   height="16"
   id="svg2"
   version="1.1"
   xmlns:xlink="http://www.w3.org/1999/xlink"
   xmlns="http://www.w3.org/2000/svg"
   xmlns:svg="http://www.w3.org/2000/svg"
   xmlns:rdf="http://www.w3.org/1999/02/22-rdf-syntax-ns#"
   xmlns:cc="http://creativecommons.org/ns#"
   xmlns:dc="http://purl.org/dc/elements/1.1/">
  <defs
     id="defs4">
    <linearGradient
       id="linearGradient8154">
      <stop
         style="stop-color:#cb6c1a;stop-opacity:1;"
         offset="0"
         id="stop8156" />
      <stop
         style="stop-color:#d79964;stop-opacity:1"
         offset="1"
         id="stop8158" />
    </linearGradient>
    <linearGradient
       xlink:href="#linearGradient8154"
       id="linearGradient8160"
       x1="11"
       y1="1049.3622"
       x2="7"
       y2="1037.3622"
       gradientUnits="userSpaceOnUse" />
  </defs>
  <metadata
     id="metadata7">
    <rdf:RDF>
      <cc:Work
         rdf:about="">
        <dc:format>image/svg+xml</dc:format>
        <dc:type
           rdf:resource="http://purl.org/dc/dcmitype/StillImage" />
        <dc:title />
      </cc:Work>
    </rdf:RDF>
  </metadata>
  <g
     id="layer1"
     style="display:inline"
     transform="translate(0,-1036.3622)">
    <path
       id="path4322"
       style="fill:url(#linearGradient8160);fill-opacity:1;fill-rule:evenodd;stroke:none;stroke-width:1px;stroke-linecap:butt;stroke-linejoin:miter;stroke-opacity:1"
       d="m 4.7600632,1041.739 c 2.1344013,-0.227 4.2880194,-0.2616 6.4798728,0.086 l -1.05838,-4.3848 -2.52715,0.5617 -1.8791635,-0.5617 z m -3.76006366,2.6021 c 2.00955966,-1.2338 4.53745566,-1.6617 7.19072186,-1.6308 2.7428826,0.032 5.0922356,0.6396 6.8092786,1.6519 z m 5.00000206,2.5211 3.9999994,0 m 3,0.5 a 2.2222281,1.9999849 0 0 1 -2.222228,2 2.2222281,1.9999849 0 0 1 -2.2222283,-2 2.2222281,1.9999849 0 0 1 2.2222283,-2 2.2222281,1.9999849 0 0 1 2.222228,2 z m -5.5555449,0 a 2.2222281,1.9999849 0 0 1 -2.222227,2 2.2222281,1.9999849 0 0 1 -2.2222292,-2 2.2222281,1.9999849 0 0 1 2.2222292,-2 2.2222281,1.9999849 0 0 1 2.222227,2 z" />
    <g
       transform="matrix(0.17633881,0,0,-0.17633881,-28.883145,1108.1168)"
       id="g6382" />
    <g
       transform="matrix(0.17633881,0,0,-0.17633881,-28.883145,1108.1168)"
       id="g6434" />
  </g>
</svg>
