<?xml version="1.0" encoding="UTF-8" standalone="no"?>
<!-- Created with Inkscape (http://www.inkscape.org/) -->

<svg
   width="16"
   height="16"
   id="svg25490"
   version="1.1"
   xmlns:xlink="http://www.w3.org/1999/xlink"
   xmlns="http://www.w3.org/2000/svg"
   xmlns:svg="http://www.w3.org/2000/svg"
   xmlns:rdf="http://www.w3.org/1999/02/22-rdf-syntax-ns#"
   xmlns:cc="http://creativecommons.org/ns#"
   xmlns:dc="http://purl.org/dc/elements/1.1/">
  <defs
     id="defs25492">
    <linearGradient
       xlink:href="#linearGradient6281-8-0-1-6"
       id="linearGradient3093-5-2-7-0-9"
       gradientUnits="userSpaceOnUse"
       gradientTransform="matrix(2.3199889,0,0,2.3199889,10.199693,1043.1852)"
       x1="0.9375"
       y1="4.8437853"
       x2="0.9375"
       y2="7.549418" />
    <linearGradient
       id="linearGradient6281-8-0-1-6">
      <stop
         style="stop-color:#f7f9fb;stop-opacity:1"
         offset="0"
         id="stop6283-0-2-2-1" />
      <stop
         style="stop-color:#ffd680;stop-opacity:1"
         offset="1"
         id="stop6285-5-0-9-7" />
    </linearGradient>
    <linearGradient
       xlink:href="#linearGradient4185"
       id="linearGradient4191"
       x1="9.7633457"
       y1="1051.3984"
       x2="7.2185268"
       y2="1044.8577"
       gradientUnits="userSpaceOnUse" />
    <linearGradient
       id="linearGradient4185">
      <stop
         style="stop-color:#f0e55f;stop-opacity:1"
         offset="0"
         id="stop4187" />
      <stop
         style="stop-color:#d8dc98;stop-opacity:1"
         offset="1"
         id="stop4189" />
    </linearGradient>
    <linearGradient
       xlink:href="#linearGradient4177"
       id="linearGradient4183"
       x1="4.9019866"
       y1="1045.83"
       x2="8.1466045"
       y2="1054.0059"
       gradientUnits="userSpaceOnUse" />
    <linearGradient
       id="linearGradient4177">
      <stop
         style="stop-color:#91854e;stop-opacity:1"
         offset="0"
         id="stop4179" />
      <stop
         style="stop-color:#4a597c;stop-opacity:1"
         offset="1"
         id="stop4181" />
    </linearGradient>
  </defs>
  <metadata
     id="metadata25495">
    <rdf:RDF>
      <cc:Work
         rdf:about="">
        <dc:format>image/svg+xml</dc:format>
        <dc:type
           rdf:resource="http://purl.org/dc/dcmitype/StillImage" />
        <dc:title />
      </cc:Work>
    </rdf:RDF>
  </metadata>
  <g
     id="layer1"
     transform="translate(0,-1036.3622)">
    <g
       id="g4249"
       transform="matrix(0.94376518,0,0,1.0019455,-0.26934827,-4.4268357)">
      <path
         id="path4245"
         d="m 1.9375,1046.1747 c 0.3465585,1.8098 4,4.125 4,4.125 l 0.8175922,0.9931 c 0,0 -1.5171578,-0.3875 -1.8175922,-0.2427 -0.4809297,0.2311 -0.8233768,0.7465 -1,1.25 -0.096544,0.2752 -0.111616,0.6055 0,0.875 0.1803987,0.4355 0.564479,0.8196 1,1 0.3272073,0.1355 0.7352927,0.1355 1.0625,0 0.4627411,-0.1917 1.4823446,-1.3056 1.4823446,-1.3056 l 1.5508568,-1.6613 2.0605486,-2.1268 c 0.456671,-0.4714 0.451406,-1.5174 0,-1.9688 -1.088538,-1.0885 -3.265625,-3.2656 -3.265625,-3.2656 0,0 -6.2876927,0.2541 -5.890625,2.3277 z"
         style="fill:url(#linearGradient4191);fill-opacity:1;fill-rule:evenodd;stroke:url(#linearGradient4183);stroke-width:1px;stroke-linecap:butt;stroke-linejoin:miter;stroke-opacity:1" />
      <path
         id="path4247"
         d="m 5.0921796,1047.5908 c 0,0 0.1035025,-0.9178 -0.1546796,-1.5411 -0.1522123,-0.3675 -1.0457828,-0.9062 -1.59375,-0.9062 -0.6979167,0 -1.4723615,0.5507 -1.2013641,0.2797 2.1108671,-2.1109 2.6445064,-3.0042 4.8107391,-5.1704 0.2614822,-0.2615 0.8056988,-0.1753 1.109375,0 0.3863767,0.2231 0.8984375,0.8616 0.8984375,1.4178 l 0,1.5666 -3.1054688,3.0117 c 0,0 -0.5638582,0.3957 -0.7632891,1.3419 z"
         style="fill:#f0efbe;fill-opacity:1;fill-rule:evenodd;stroke:#91854e;stroke-width:1px;stroke-linecap:butt;stroke-linejoin:miter;stroke-opacity:1" />
    </g>
    <g
       transform="translate(-0.47160917,-15.943503)"
       style="display:inline"
       id="g4293">
      <rect
         transform="matrix(-0.70710678,-0.70710678,0.70710678,-0.70710678,0,0)"
         y="-740.41083"
         x="-758.82336"
         height="4.454073"
         width="4.5825453"
         id="rect3910"
         style="display:inline;fill:#a27d18;fill-opacity:1;stroke:#a27d18;stroke-width:1.03243756;stroke-miterlimit:4;stroke-dasharray:none;stroke-opacity:1" />
      <path
         style="display:inline;fill:url(#linearGradient3093-5-2-7-0-9);fill-opacity:1;stroke:none"
         d="m 12.471186,1054.309 1.001133,0 0,2.0068 1.986639,0 0,0.9911 -1.986639,0 0,2.0078 -1.001133,0 0,-2.0078 -1.98664,0 0,-0.9911 1.98664,0 z"
         id="path5581-5-5" />
    </g>
  </g>
</svg>
