<?xml version="1.0" encoding="UTF-8" standalone="no"?>
<!-- Created with Inkscape (http://www.inkscape.org/) -->

<svg
   width="75"
   height="66"
   id="svg2"
   version="1.1"
   inkscape:version="1.3 (0e150ed, 2023-07-21)"
   sodipodi:docname="jarToPlugin_wiz.svg"
   inkscape:export-filename="/Users/d021678/git/eclipse.jdt.ui/org.eclipse.jdt.ui/icons/full/wizban/newclass_wiz2.png"
   inkscape:export-xdpi="90"
   inkscape:export-ydpi="90"
   xml:space="preserve"
   xmlns:inkscape="http://www.inkscape.org/namespaces/inkscape"
   xmlns:sodipodi="http://sodipodi.sourceforge.net/DTD/sodipodi-0.dtd"
   xmlns:xlink="http://www.w3.org/1999/xlink"
   xmlns="http://www.w3.org/2000/svg"
   xmlns:svg="http://www.w3.org/2000/svg"
   xmlns:rdf="http://www.w3.org/1999/02/22-rdf-syntax-ns#"
   xmlns:cc="http://creativecommons.org/ns#"
   xmlns:dc="http://purl.org/dc/elements/1.1/"><defs
     id="defs4"><linearGradient
       inkscape:collect="always"
       id="linearGradient4972"><stop
         style="stop-color:#ffffff;stop-opacity:1"
         offset="0"
         id="stop4974" /><stop
         style="stop-color:#f5f8fd;stop-opacity:1"
         offset="1"
         id="stop4976" /></linearGradient><linearGradient
       inkscape:collect="always"
       id="linearGradient4964"><stop
         style="stop-color:#ffffff;stop-opacity:1"
         offset="0"
         id="stop4966" /><stop
         style="stop-color:#e8eefa;stop-opacity:1"
         offset="1"
         id="stop4968" /></linearGradient><linearGradient
       inkscape:collect="always"
       id="linearGradient4956"><stop
         style="stop-color:#fcfdfe;stop-opacity:1"
         offset="0"
         id="stop4958" /><stop
         style="stop-color:#dee6f8;stop-opacity:1"
         offset="1"
         id="stop4960" /></linearGradient><filter
       style="color-interpolation-filters:sRGB"
       inkscape:label="Drop Shadow"
       id="filter8854"><feFlood
         flood-opacity="0.933333"
         flood-color="rgb(244,248,254)"
         result="flood"
         id="feFlood8856" /><feComposite
         in="flood"
         in2="SourceGraphic"
         operator="in"
         result="composite1"
         id="feComposite8858" /><feGaussianBlur
         in="composite1"
         stdDeviation="1.2"
         result="blur"
         id="feGaussianBlur8860" /><feOffset
         dx="-1"
         dy="3"
         result="offset"
         id="feOffset8862" /><feComposite
         in="SourceGraphic"
         in2="offset"
         operator="over"
         result="composite2"
         id="feComposite8864" /></filter><linearGradient
       id="linearGradient6122"><stop
         style="stop-color:#c0c0c0;stop-opacity:1"
         offset="0"
         id="stop6124" /><stop
         id="stop6132"
         offset="0.5"
         style="stop-color:#adadad;stop-opacity:1" /><stop
         style="stop-color:#808080;stop-opacity:1"
         offset="1"
         id="stop6126" /></linearGradient><linearGradient
       id="linearGradient7087"><stop
         style="stop-color:#17325d;stop-opacity:1;"
         offset="0"
         id="stop7089" /><stop
         id="stop7091"
         offset="0.25"
         style="stop-color:#b4d0e2;stop-opacity:1" /><stop
         id="stop7093"
         offset="0.5"
         style="stop-color:#b7d2e4;stop-opacity:1" /><stop
         style="stop-color:#acc9de;stop-opacity:1"
         offset="0.75"
         id="stop7095" /><stop
         style="stop-color:#3e72a7;stop-opacity:1"
         offset="1"
         id="stop7097" /></linearGradient><mask
       id="mask7366"
       maskUnits="userSpaceOnUse"><path
         style="fill:#ffffff;fill-opacity:1;stroke:#ffffff;stroke-width:1;stroke-linecap:butt;stroke-linejoin:miter;stroke-miterlimit:4;stroke-opacity:1;stroke-dashoffset:0;display:inline"
         d="m -16.593048,1040.862 9.990206,0 0,10.0018 -2.983353,3.0385 -5.966213,0 c -0.53033,-0.022 -1.04064,-0.5519 -1.04064,-1.0385 z"
         id="path7368"
         inkscape:connector-curvature="0"
         sodipodi:nodetypes="ccccccc" /></mask><linearGradient
       id="linearGradient7584-5"><stop
         id="stop7586-4"
         offset="0"
         style="stop-color:#f9cd5f;stop-opacity:1" /><stop
         id="stop7588-5"
         offset="1"
         style="stop-color:#fbf0b4;stop-opacity:1" /></linearGradient><linearGradient
       id="linearGradient7592-1"><stop
         id="stop7594-6"
         offset="0"
         style="stop-color:#bd8416;stop-opacity:1" /><stop
         id="stop7596-9"
         offset="1"
         style="stop-color:#a66b10;stop-opacity:1" /></linearGradient><linearGradient
       id="linearGradient10798-1-9-3-7-6-6-6-2-6-7-98-9-4-1"><stop
         style="stop-color:#5aad60;stop-opacity:1;"
         offset="0"
         id="stop10800-5-2-1-8-20-4-0-2-1-9-0-0-1-1" /><stop
         id="stop10806-6-8-5-3-9-2-2-7-0-4-2-7-8-9"
         offset="0.5"
         style="stop-color:#5bb26a;stop-opacity:1;" /><stop
         style="stop-color:#a4c589;stop-opacity:1"
         offset="1"
         id="stop10802-1-5-3-0-4-6-8-5-5-6-69-6-4-0" /></linearGradient><mask
       maskUnits="userSpaceOnUse"
       id="mask7366-4"><path
         sodipodi:nodetypes="ccccccc"
         inkscape:connector-curvature="0"
         id="path7368-2"
         d="m -16.593048,1040.862 9.990206,0 0,10.0018 -2.983353,3.0385 -5.966213,0 c -0.53033,-0.022 -1.04064,-0.5519 -1.04064,-1.0385 z"
         style="fill:#ffffff;fill-opacity:1;stroke:#ffffff;stroke-width:1;stroke-linecap:butt;stroke-linejoin:miter;stroke-miterlimit:4;stroke-opacity:1;stroke-dashoffset:0;display:inline" /></mask><linearGradient
       inkscape:collect="always"
       xlink:href="#linearGradient7087"
       id="linearGradient9331"
       gradientUnits="userSpaceOnUse"
       gradientTransform="translate(-20,0)"
       x1="4.7776356"
       y1="1039.8118"
       x2="4.7776356"
       y2="1041.911" /><linearGradient
       y2="1041.911"
       x2="4.7776356"
       y1="1039.8118"
       x1="4.7776356"
       gradientTransform="translate(-18,4.7e-5)"
       gradientUnits="userSpaceOnUse"
       id="linearGradient9333"
       xlink:href="#linearGradient7087"
       inkscape:collect="always" /><linearGradient
       y2="1041.911"
       x2="4.7776356"
       y1="1039.8118"
       x1="4.7776356"
       gradientTransform="translate(-16,4.7e-5)"
       gradientUnits="userSpaceOnUse"
       id="linearGradient9335"
       xlink:href="#linearGradient7087"
       inkscape:collect="always" /><linearGradient
       y2="1041.911"
       x2="4.7776356"
       y1="1039.8118"
       x1="4.7776356"
       gradientTransform="translate(-14,4.7e-5)"
       gradientUnits="userSpaceOnUse"
       id="linearGradient9337"
       xlink:href="#linearGradient7087"
       inkscape:collect="always" /><linearGradient
       y2="1041.911"
       x2="4.7776356"
       y1="1039.8118"
       x1="4.7776356"
       gradientTransform="translate(-12,4.7e-5)"
       gradientUnits="userSpaceOnUse"
       id="linearGradient9339"
       xlink:href="#linearGradient7087"
       inkscape:collect="always" /><linearGradient
       gradientTransform="translate(-80,0)"
       gradientUnits="userSpaceOnUse"
       y2="1042.7973"
       x2="163.22012"
       y1="1042.7973"
       x1="88.220117"
       id="linearGradient68073"
       xlink:href="#linearGradient4956"
       inkscape:collect="always" /><linearGradient
       gradientTransform="translate(-80,0)"
       gradientUnits="userSpaceOnUse"
       y2="1032.2669"
       x2="163.22012"
       y1="1032.2668"
       x1="94.469681"
       id="linearGradient68075"
       xlink:href="#linearGradient4964"
       inkscape:collect="always" /><linearGradient
       gradientTransform="translate(-80,0)"
       gradientUnits="userSpaceOnUse"
       y2="1032.2668"
       x2="152.72206"
       y1="1032.2668"
       x1="88.220116"
       id="linearGradient68077"
       xlink:href="#linearGradient4972"
       inkscape:collect="always" /><filter
       id="filter8854-9"
       inkscape:label="Drop Shadow"
       style="color-interpolation-filters:sRGB"><feFlood
         id="feFlood8856-0"
         result="flood"
         flood-color="rgb(244,248,254)"
         flood-opacity="0.933333" /><feComposite
         id="feComposite8858-2"
         result="composite1"
         operator="in"
         in2="SourceGraphic"
         in="flood" /><feGaussianBlur
         id="feGaussianBlur8860-3"
         result="blur"
         stdDeviation="1.2"
         in="composite1" /><feOffset
         id="feOffset8862-2"
         result="offset"
         dy="3"
         dx="-1" /><feComposite
         id="feComposite8864-3"
         result="composite2"
         operator="over"
         in2="offset"
         in="SourceGraphic" /></filter><linearGradient
       id="linearGradient10798-1-9-3-7-6-8-9-0-9-1"><stop
         id="stop10800-5-2-1-8-20-6-4-9-8-2"
         offset="0"
         style="stop-color:#7564b1;stop-opacity:1" /><stop
         style="stop-color:#5d4aa1;stop-opacity:1"
         offset="0.5"
         id="stop10806-6-8-5-3-9-24-8-4-3-2" /><stop
         id="stop10802-1-5-3-0-4-8-4-2-9-2"
         offset="1"
         style="stop-color:#9283c3;stop-opacity:1" /></linearGradient><linearGradient
       id="linearGradient7540-2-3-8-7"><stop
         id="stop7542-8-7-5-3"
         offset="0"
         style="stop-color:#ffffff;stop-opacity:0.502" /><stop
         style="stop-color:#ffffff;stop-opacity:1"
         offset="0.47623286"
         id="stop7544-8-2-0-5" /><stop
         style="stop-color:#ffffff;stop-opacity:0"
         offset="0.5"
         id="stop7546-1-7-9-5" /><stop
         id="stop7548-98-9-2-4"
         offset="1"
         style="stop-color:#ffffff;stop-opacity:0;" /></linearGradient><linearGradient
       inkscape:collect="always"
       id="linearGradient7272-66-4-5-5-5-8"><stop
         style="stop-color:#8f6c10;stop-opacity:1"
         offset="0"
         id="stop7274-6-0-1-7-4-7" /><stop
         style="stop-color:#c9a645;stop-opacity:1"
         offset="1"
         id="stop7276-66-6-3-9-1-4" /></linearGradient><linearGradient
       y2="1030.3411"
       x2="-10.159802"
       y1="1030.3411"
       x1="-22.453552"
       gradientUnits="userSpaceOnUse"
       id="linearGradient10540"
       xlink:href="#linearGradient7540-2-3-8-7"
       inkscape:collect="always" /><linearGradient
       y2="1030.3411"
       x2="-10.159802"
       y1="1030.3411"
       x1="-22.453552"
       gradientTransform="matrix(0,1,-1,0,1014.0344,1046.6478)"
       gradientUnits="userSpaceOnUse"
       id="linearGradient10542"
       xlink:href="#linearGradient7540-2-3-8-7"
       inkscape:collect="always" /><linearGradient
       y2="1023.2569"
       x2="-15.945988"
       y1="1037.4661"
       x1="-15.945988"
       gradientTransform="matrix(0.95585117,0,0,0.95585117,-0.71992063,45.488394)"
       gradientUnits="userSpaceOnUse"
       id="linearGradient10544"
       xlink:href="#linearGradient7272-66-4-5-5-5-8"
       inkscape:collect="always" /><mask
       id="mask10620"
       maskUnits="userSpaceOnUse"><path
         transform="matrix(0.55482947,0,0,0.55482947,-206.96039,787.08655)"
         d="m 398.75,468.23718 a 10.625,10.625 0 1 1 -21.25,0 10.625,10.625 0 1 1 21.25,0 z"
         sodipodi:ry="10.625"
         sodipodi:rx="10.625"
         sodipodi:cy="468.23718"
         sodipodi:cx="388.125"
         id="path10622"
         style="font-size:13.58917427px;font-style:normal;font-weight:normal;line-height:125%;letter-spacing:0px;word-spacing:0px;fill:#ffffff;fill-opacity:1;stroke:#ffffff;stroke-width:2.16621375;stroke-linecap:round;stroke-linejoin:round;stroke-miterlimit:4;stroke-opacity:1;stroke-dasharray:none;stroke-dashoffset:0;display:inline;font-family:Sans"
         sodipodi:type="arc" /></mask><linearGradient
       id="linearGradient4528-9-5-7-9-7-3"><stop
         id="stop4530-0-5-0-5-8-4"
         offset="0"
         style="stop-color:#e0c576;stop-opacity:1;" /><stop
         id="stop4532-7-9-3-3-6-1"
         offset="1"
         style="stop-color:#9e7916;stop-opacity:1" /></linearGradient><linearGradient
       id="linearGradient6281-8-0-1-6-6-4-2-8-0"><stop
         style="stop-color:#f7f9fb;stop-opacity:1"
         offset="0"
         id="stop6283-0-2-2-1-2-0-1-6-0" /><stop
         style="stop-color:#ffd680;stop-opacity:1"
         offset="1"
         id="stop6285-5-0-9-7-6-9-9-1-9" /></linearGradient><linearGradient
       inkscape:collect="always"
       xlink:href="#linearGradient4972-7"
       id="linearGradient4978"
       x1="88.220116"
       y1="1032.2668"
       x2="163.22012"
       y2="1032.2668"
       gradientUnits="userSpaceOnUse"
       gradientTransform="translate(-88.220116,-999.2669)" /><linearGradient
       inkscape:collect="always"
       id="linearGradient4972-7"><stop
         style="stop-color:#b8ccf1;stop-opacity:0.10196079"
         offset="0"
         id="stop4974-8" /><stop
         style="stop-color:#6e97e2;stop-opacity:0.10196079"
         offset="1"
         id="stop4976-1" /></linearGradient><linearGradient
       inkscape:collect="always"
       xlink:href="#linearGradient4964-3"
       id="linearGradient4970"
       x1="118.38584"
       y1="1032.1835"
       x2="163.22012"
       y2="1032.2668"
       gradientUnits="userSpaceOnUse"
       gradientTransform="translate(-88.220117,-999.2669)" /><linearGradient
       inkscape:collect="always"
       id="linearGradient4964-3"><stop
         style="stop-color:#ffffff;stop-opacity:0.349"
         offset="0"
         id="stop4966-1" /><stop
         style="stop-color:#91ade6;stop-opacity:1"
         offset="1"
         id="stop4968-1" /></linearGradient><linearGradient
       inkscape:collect="always"
       xlink:href="#linearGradient4956-2"
       id="linearGradient4962"
       x1="88.220116"
       y1="1042.7972"
       x2="163.22012"
       y2="1042.7972"
       gradientUnits="userSpaceOnUse"
       gradientTransform="translate(-88.220116,-999.2669)" /><linearGradient
       inkscape:collect="always"
       id="linearGradient4956-2"><stop
         style="stop-color:#fcfdfe;stop-opacity:0.25641027"
         offset="0"
         id="stop4958-5" /><stop
         style="stop-color:#98aae7;stop-opacity:0.40392157"
         offset="1"
         id="stop4960-6" /></linearGradient><linearGradient
       id="linearGradient3827"><stop
         id="stop3829"
         offset="0"
         style="stop-color:#ffffff;stop-opacity:0;" /><stop
         style="stop-color:#ffffff;stop-opacity:1;"
         offset="0.60149658"
         id="stop3835" /><stop
         id="stop3831"
         offset="1"
         style="stop-color:#ffffff;stop-opacity:0;" /></linearGradient><linearGradient
       id="linearGradient10798-1-9-3-7-6-8-9-0-9-1-0"><stop
         id="stop10800-5-2-1-8-20-6-4-9-8-2-9"
         offset="0"
         style="stop-color:#f3faed;stop-opacity:1" /><stop
         style="stop-color:#e7f4da;stop-opacity:1"
         offset="0.65917557"
         id="stop10806-6-8-5-3-9-24-8-4-3-2-4" /><stop
         id="stop10802-1-5-3-0-4-8-4-2-9-2-5"
         offset="1"
         style="stop-color:#67bf1f;stop-opacity:1" /></linearGradient><linearGradient
       id="linearGradient4847"><stop
         style="stop-color:#d2e0f1;stop-opacity:1"
         offset="0"
         id="stop4849" /><stop
         id="stop4855"
         offset="0.84137291"
         style="stop-color:#d2e0f1;stop-opacity:1" /><stop
         style="stop-color:#e8edec;stop-opacity:1"
         offset="1"
         id="stop4851" /></linearGradient><radialGradient
       inkscape:collect="always"
       xlink:href="#linearGradient4960"
       id="radialGradient4091"
       gradientUnits="userSpaceOnUse"
       gradientTransform="matrix(2.7837294,0.04400209,-0.06533583,3.9913152,27.904192,-3151.3294)"
       cx="28.53339"
       cy="1045.8799"
       fx="28.53339"
       fy="1045.8799"
       r="5.0160384" /><linearGradient
       id="linearGradient4960"><stop
         id="stop4962"
         offset="0"
         style="stop-color:#fdfcfa;stop-opacity:1;" /><stop
         style="stop-color:#ffffff;stop-opacity:0.251"
         offset="0.74923491"
         id="stop4964" /><stop
         id="stop4966-2"
         offset="1"
         style="stop-color:#d2e0f1;stop-opacity:0" /></linearGradient><linearGradient
       inkscape:collect="always"
       xlink:href="#linearGradient4968"
       id="linearGradient4093"
       gradientUnits="userSpaceOnUse"
       gradientTransform="matrix(3.1441751,0,0,3.0896698,-50.360886,-2208.0745)"
       x1="33.922783"
       y1="1051.2581"
       x2="33.922783"
       y2="1040.4603" /><linearGradient
       id="linearGradient4968"><stop
         id="stop4970"
         offset="0"
         style="stop-color:#7792b2;stop-opacity:1;" /><stop
         style="stop-color:#a1b3cb;stop-opacity:1"
         offset="0.15948199"
         id="stop4972" /><stop
         style="stop-color:#6180a9;stop-opacity:1"
         offset="0.46551239"
         id="stop4974-2" /><stop
         style="stop-color:#a1b3cb;stop-opacity:1"
         offset="0.74424738"
         id="stop4976-6" /><stop
         id="stop4978"
         offset="1"
         style="stop-color:#7995b8;stop-opacity:1" /></linearGradient><linearGradient
       inkscape:collect="always"
       xlink:href="#linearGradient4817"
       id="linearGradient4095"
       gradientUnits="userSpaceOnUse"
       gradientTransform="matrix(3.1441751,0,0,3.0896698,-50.360886,-2208.5288)"
       x1="25.082857"
       y1="1038.8719"
       x2="31.931776"
       y2="1038.8719" /><linearGradient
       inkscape:collect="always"
       id="linearGradient4817"><stop
         style="stop-color:#fefdef;stop-opacity:1;"
         offset="0"
         id="stop4819" /><stop
         id="stop5177"
         offset="0.57505649"
         style="stop-color:#fbdd83;stop-opacity:1" /><stop
         style="stop-color:#fefae5;stop-opacity:1"
         offset="1"
         id="stop4821" /></linearGradient><linearGradient
       inkscape:collect="always"
       xlink:href="#linearGradient4825"
       id="linearGradient4097"
       gradientUnits="userSpaceOnUse"
       gradientTransform="matrix(3.1441751,0,0,3.0896698,-50.360886,-2208.5288)"
       x1="27.425272"
       y1="1037.7671"
       x2="27.425272"
       y2="1039.8464" /><linearGradient
       inkscape:collect="always"
       id="linearGradient4825"><stop
         style="stop-color:#f2da9b;stop-opacity:1"
         offset="0"
         id="stop4827" /><stop
         id="stop5175"
         offset="0.38652825"
         style="stop-color:#f0dc98;stop-opacity:1" /><stop
         id="stop5173"
         offset="0.76648188"
         style="stop-color:#e9ba58;stop-opacity:1" /><stop
         style="stop-color:#d3af2e;stop-opacity:0.93725491"
         offset="1"
         id="stop4829" /></linearGradient><filter
       inkscape:collect="always"
       style="color-interpolation-filters:sRGB"
       id="filter5127"
       x="-0.080611625"
       width="1.1612232"
       y="-0.02336289"
       height="1.0467258"><feGaussianBlur
         inkscape:collect="always"
         stdDeviation="0.19684756"
         id="feGaussianBlur5129" /></filter><filter
       inkscape:collect="always"
       style="color-interpolation-filters:sRGB"
       id="filter5127-8"
       x="-0.077586246"
       width="1.1551725"
       y="-0.023437493"
       height="1.046875"><feGaussianBlur
         inkscape:collect="always"
         stdDeviation="0.19684756"
         id="feGaussianBlur5129-7" /></filter><filter
       height="1.0954513"
       y="-0.047725668"
       width="1.0967932"
       x="-0.048396592"
       id="filter4285-9-8-5"
       style="color-interpolation-filters:sRGB"
       inkscape:collect="always"><feGaussianBlur
         id="feGaussianBlur4287-9-5-9"
         stdDeviation="0.10000000000000001"
         inkscape:collect="always" /></filter><filter
       inkscape:collect="always"
       style="color-interpolation-filters:sRGB"
       id="filter5205"
       x="-0.060432654"
       width="1.1208653"
       y="-0.25260428"
       height="1.5052086"><feGaussianBlur
         inkscape:collect="always"
         stdDeviation="0.41863303"
         id="feGaussianBlur5207" /></filter><filter
       inkscape:collect="always"
       style="color-interpolation-filters:sRGB"
       id="filter5214"
       x="-0.02976"
       width="1.05952"
       y="-0.124"
       height="1.248"><feGaussianBlur
         inkscape:collect="always"
         stdDeviation="0.31"
         id="feGaussianBlur5216" /></filter><filter
       inkscape:collect="always"
       style="color-interpolation-filters:sRGB"
       id="filter5311"
       x="-0.092446772"
       width="1.19776"
       y="-1.221447"
       height="3.4748984"><feGaussianBlur
         inkscape:collect="always"
         stdDeviation="0.58979378"
         id="feGaussianBlur5313" /></filter><filter
       inkscape:collect="always"
       style="color-interpolation-filters:sRGB"
       id="filter5355"
       x="-0.43218655"
       width="1.8418253"
       y="-0.067001072"
       height="1.1385281"><feGaussianBlur
         inkscape:collect="always"
         stdDeviation="0.58073084"
         id="feGaussianBlur5357" /></filter><filter
       inkscape:collect="always"
       style="color-interpolation-filters:sRGB"
       id="filter5535"
       x="-0.48403505"
       width="1.9680701"
       y="-0.56926341"
       height="2.1385268"><feGaussianBlur
         inkscape:collect="always"
         stdDeviation="5.2543488"
         id="feGaussianBlur5537" /></filter><linearGradient
       gradientUnits="userSpaceOnUse"
       y2="1023.234"
       x2="51.933025"
       y1="1020.4141"
       x1="51.658199"
       id="linearGradient8769"
       xlink:href="#linearGradient8767"
       inkscape:collect="always"
       gradientTransform="matrix(2.7500001,0,0,0.99370101,-129.87501,-991.91286)" /><linearGradient
       id="linearGradient8767"
       inkscape:collect="always"><stop
         id="stop8763"
         offset="0"
         style="stop-color:#6a8ec1;stop-opacity:1" /><stop
         id="stop8765"
         offset="1"
         style="stop-color:#80a1cf;stop-opacity:1" /></linearGradient><linearGradient
       gradientUnits="userSpaceOnUse"
       y2="1024.3622"
       x2="50"
       y1="1019.3622"
       x1="50"
       id="linearGradient8753"
       xlink:href="#linearGradient8751"
       inkscape:collect="always"
       gradientTransform="matrix(2.7500001,0,0,0.99370101,-129.87501,-991.91286)" /><linearGradient
       id="linearGradient8751"
       inkscape:collect="always"><stop
         id="stop8747"
         offset="0"
         style="stop-color:#2e5d8f;stop-opacity:1" /><stop
         id="stop8749"
         offset="1"
         style="stop-color:#6085bb;stop-opacity:1" /></linearGradient><linearGradient
       gradientUnits="userSpaceOnUse"
       y2="1030.3622"
       x2="62"
       y1="1019.3622"
       x1="57"
       id="linearGradient8761"
       xlink:href="#linearGradient8759"
       inkscape:collect="always"
       gradientTransform="matrix(1.0999999,0,0,1.1281495,-43.249997,-1129.0318)" /><linearGradient
       id="linearGradient8759"
       inkscape:collect="always"><stop
         id="stop8755"
         offset="0"
         style="stop-color:#d3e0eb;stop-opacity:1" /><stop
         id="stop8757"
         offset="1"
         style="stop-color:#5179b5;stop-opacity:1" /></linearGradient><linearGradient
       inkscape:collect="always"
       xlink:href="#linearGradient2543"
       id="linearGradient2545"
       x1="18.423391"
       y1="17.419403"
       x2="18.436228"
       y2="30.334658"
       gradientUnits="userSpaceOnUse" /><linearGradient
       inkscape:collect="always"
       id="linearGradient2543"><stop
         style="stop-color:#4f76b0;stop-opacity:1"
         offset="0"
         id="stop2539" /><stop
         id="stop2547"
         offset="0.51739347"
         style="stop-color:#a8bfda;stop-opacity:1" /><stop
         style="stop-color:#587cb2;stop-opacity:1"
         offset="1"
         id="stop2541" /></linearGradient><linearGradient
       gradientUnits="userSpaceOnUse"
       y2="1026.0538"
       x2="68.598152"
       y1="1016.2225"
       x1="63.98344"
       id="linearGradient8779"
       xlink:href="#linearGradient8777"
       inkscape:collect="always"
       gradientTransform="matrix(1.3687895,0,0,1.494898,-60.408122,-1504.0798)" /><linearGradient
       id="linearGradient8777"
       inkscape:collect="always"><stop
         id="stop8773"
         offset="0"
         style="stop-color:#fbeaab;stop-opacity:1;" /><stop
         id="stop8775"
         offset="1"
         style="stop-color:#deb241;stop-opacity:1" /></linearGradient><linearGradient
       gradientUnits="userSpaceOnUse"
       y2="1028.4165"
       x2="67.683601"
       y1="1015.6127"
       x1="68.47998"
       id="linearGradient8787"
       xlink:href="#linearGradient8785"
       inkscape:collect="always"
       gradientTransform="matrix(1.3687895,0,0,1.494898,-60.408122,-1504.0798)" /><linearGradient
       id="linearGradient8785"
       inkscape:collect="always"><stop
         id="stop8781"
         offset="0"
         style="stop-color:#bb8d2d;stop-opacity:1" /><stop
         style="stop-color:#ac7400;stop-opacity:1"
         offset="0.49535784"
         id="stop8789" /><stop
         id="stop8783"
         offset="1"
         style="stop-color:#b07905;stop-opacity:1" /></linearGradient><filter
       height="1.2365698"
       y="-0.11828489"
       width="1.8310951"
       x="-0.41554753"
       id="filter8871"
       style="color-interpolation-filters:sRGB"
       inkscape:collect="always"><feGaussianBlur
         id="feGaussianBlur8873"
         stdDeviation="0.53588249"
         inkscape:collect="always" /></filter><filter
       height="1.6025846"
       y="-0.30129232"
       width="1.626688"
       x="-0.313344"
       id="filter8835"
       style="color-interpolation-filters:sRGB"
       inkscape:collect="always"><feGaussianBlur
         id="feGaussianBlur8837"
         stdDeviation="0.49751501"
         inkscape:collect="always" /></filter><filter
       inkscape:collect="always"
       style="color-interpolation-filters:sRGB"
       id="filter2533"
       x="-0.59377657"
       width="2.1875531"
       y="-0.92639431"
       height="2.8527886"><feGaussianBlur
         inkscape:collect="always"
         stdDeviation="0.73536407"
         id="feGaussianBlur2535" /></filter><filter
       height="1.2365698"
       y="-0.11828489"
       width="1.8310951"
       x="-0.41554753"
       id="filter8871-1"
       style="color-interpolation-filters:sRGB"
       inkscape:collect="always"><feGaussianBlur
         id="feGaussianBlur8873-8"
         stdDeviation="0.53588249"
         inkscape:collect="always" /></filter><linearGradient
       inkscape:collect="always"
       xlink:href="#linearGradient4527"
       id="linearGradient4533"
       x1="29.521629"
       y1="29.827848"
       x2="31.546745"
       y2="39.175972"
       gradientUnits="userSpaceOnUse"
       gradientTransform="matrix(-1,0,0,1,42.021149,982.96231)" /><linearGradient
       inkscape:collect="always"
       id="linearGradient4527"><stop
         style="stop-color:#68b367;stop-opacity:1"
         offset="0"
         id="stop4529" /><stop
         style="stop-color:#5eaa6e;stop-opacity:1"
         offset="1"
         id="stop4531" /></linearGradient><linearGradient
       inkscape:collect="always"
       xlink:href="#linearGradient4578"
       id="linearGradient4584"
       x1="42.780308"
       y1="1025.5621"
       x2="40.143147"
       y2="1039.7532"
       gradientUnits="userSpaceOnUse"
       gradientTransform="matrix(-1,0,0,1,50.241266,-16.304589)" /><linearGradient
       inkscape:collect="always"
       id="linearGradient4578"><stop
         style="stop-color:#c5f0b4;stop-opacity:1"
         offset="0"
         id="stop4580" /><stop
         style="stop-color:#80c171;stop-opacity:1"
         offset="1"
         id="stop4582" /></linearGradient></defs><sodipodi:namedview
     id="base"
     pagecolor="#bcbcbc"
     bordercolor="#666666"
     borderopacity="1.0"
     inkscape:pageopacity="0"
     inkscape:pageshadow="2"
     inkscape:zoom="7.5774531"
     inkscape:cx="70.736169"
     inkscape:cy="32.992616"
     inkscape:document-units="px"
     inkscape:current-layer="svg2"
     showgrid="true"
     inkscape:window-width="1728"
     inkscape:window-height="1051"
     inkscape:window-x="0"
     inkscape:window-y="38"
     inkscape:window-maximized="1"
     showguides="true"
     inkscape:guide-bbox="true"
     inkscape:snap-global="true"
     inkscape:snap-bbox="true"
     inkscape:bbox-nodes="true"
     inkscape:showpageshadow="2"
     inkscape:pagecheckerboard="0"
     inkscape:deskcolor="#d1d1d1"><inkscape:grid
       type="xygrid"
       id="grid4112"
       empspacing="5"
       visible="true"
       enabled="true"
       snapvisiblegridlinesonly="true"
       originx="0"
       originy="0"
       spacingy="1"
       spacingx="1"
       units="px" /></sodipodi:namedview><metadata
     id="metadata7"><rdf:RDF><cc:Work
         rdf:about=""><dc:format>image/svg+xml</dc:format><dc:type
           rdf:resource="http://purl.org/dc/dcmitype/StillImage" /></cc:Work></rdf:RDF></metadata><g
     inkscape:groupmode="layer"
     id="layer2"
     inkscape:label="Background"
     style="display:inline"
     sodipodi:insensitive="true"><path
       sodipodi:nodetypes="cccc"
       inkscape:connector-curvature="0"
       id="rect4113-1"
       d="M 75,0 75,66 1e-6,66 C 1e-6,41.2048 50.00969,0 75,0 Z"
       style="display:inline;fill:url(#linearGradient4978);fill-opacity:1;stroke:none" /><path
       sodipodi:nodetypes="cccc"
       inkscape:connector-curvature="0"
       id="rect4113-1-0"
       d="M 75,21.0607 75,66 1e-6,66 C 10.625001,47.804 43.509694,25.4357 75,21.0607 Z"
       style="display:inline;opacity:0.40400002;fill:url(#linearGradient4962);fill-opacity:1;stroke:none" /><g
       id="g11331-3-1-1-7"
       style="display:inline"
       transform="matrix(0.27903303,0,0,0.27903303,-14.618136,-107.52874)"><g
         style="fill:#737986;fill-opacity:1;stroke:#595e68;stroke-opacity:1"
         id="g13408-8-2" /></g><path
       sodipodi:nodetypes="cccc"
       inkscape:connector-curvature="0"
       id="rect4113-1-7"
       d="M 75,4.0000001e-7 75,66 30.000003,66 C 30.000003,46.1545 47.70944,9.2500004 75,4e-7 Z"
       style="display:inline;opacity:0.18399999;fill:url(#linearGradient4970);fill-opacity:1;stroke:none" /></g><g
     id="g2558"
     style="display:inline;stroke-width:1.09684"
     inkscape:label="plug"
     transform="matrix(0.87153648,0,0,0.95373736,24.818022,-8.9309189)"><path
       id="path8722-7"
       style="display:inline;opacity:1;fill:url(#linearGradient8769);fill-opacity:1;stroke:url(#linearGradient8753);stroke-width:1.09684;stroke-linecap:butt;stroke-linejoin:round;stroke-miterlimit:4;stroke-dasharray:none;stroke-opacity:1"
       d="M 3.4999999,23.512598 V 25.5 H 14.5 V 21.525196 H 3.4999999 v 1.987402"
       inkscape:connector-curvature="0"
       sodipodi:nodetypes="cccccc"
       inkscape:label="cord" /><path
       sodipodi:nodetypes="csssscsscccsssscsscc"
       id="rect8645-3"
       style="display:inline;opacity:1;fill:url(#linearGradient8761);fill-opacity:1;stroke:#4d73ae;stroke-width:1.09684;stroke-linecap:butt;stroke-linejoin:round;stroke-miterlimit:4;stroke-dasharray:none;stroke-opacity:1"
       d="M 25.499998,23.781495 25.5,15.413559 C 25.5,13.799403 24.568942,12.5 23.412427,12.5 h -2.424855 c -1.156515,0 -2.483072,1.299403 -2.483072,2.913559 v 1.599039 h -2.264856 c -0.963763,0 -1.739644,0.794104 -1.739644,1.780446 v 1.468512 3.519375 m 10.999998,5.64e-4 2e-6,8.367936 c 0,1.614156 -0.931058,2.913559 -2.087573,2.913559 h -2.424855 c -1.156515,0 -2.483072,-1.299403 -2.483072,-2.913559 V 30.550392 H 16.239644 C 15.275881,30.550392 14.5,29.756288 14.5,28.769946 v -1.468512 -3.519375"
       inkscape:connector-curvature="0"
       inkscape:label="plug" /><path
       sodipodi:nodetypes="cc"
       inkscape:connector-curvature="0"
       id="path2537"
       d="M 18.51661,16.539741 18.5464,30.705846"
       style="display:inline;fill:none;stroke:url(#linearGradient2545);stroke-width:1.09684px;stroke-linecap:butt;stroke-linejoin:miter;stroke-opacity:1"
       inkscape:label="line" /><path
       id="rect8645-2-5"
       style="display:inline;opacity:1;fill:url(#linearGradient8779);fill-opacity:1;stroke:url(#linearGradient8787);stroke-width:1.09684;stroke-linecap:butt;stroke-linejoin:round;stroke-miterlimit:4;stroke-dasharray:none;stroke-opacity:1"
       d="m 36.091538,26.489769 -10e-7,1.058985 c 0,1.06945 -0.863288,1.955925 -2.164732,1.930363 -1.301445,-0.02541 -1.941636,0 -1.941636,0 v 0.201512 c 0,1.544678 -1.158564,2.787985 -2.597679,2.788284 l -1.648306,2.98e-4 c -1.360345,3e-4 -1.22903,0.546236 -1.22903,-2.989646 V 17.520381 c 0,-3.536032 -0.205068,-2.989797 1.22903,-2.989797 h 1.648306 c 1.439115,0 2.597679,1.243607 2.597679,2.788284 v 0.201513 h 1.941637 c 1.199261,0 2.164732,0.860911 2.164732,1.930361 v 2.554332 z m 0.06454,-6.010119 h 8.461471 l -0.05085,6.010119 h -8.188123"
       inkscape:connector-curvature="0"
       sodipodi:nodetypes="cczccssssssccsccccccc"
       inkscape:label="socket" /><path
       transform="matrix(1.445753,0,0,1.3224494,-65.097292,-1327.9481)"
       style="display:inline;opacity:0.794;fill:#ffffff;fill-opacity:1;stroke:none;stroke-width:0.793242px;stroke-linecap:butt;stroke-linejoin:miter;stroke-opacity:1;filter:url(#filter8871)"
       d="m 64.018476,1016.5423 -0.152427,10.8222 c 2.375507,-3.3036 3.484206,-4.2052 2.972286,-9.2217 0.305009,-1.654 -1.117834,-1.7529 -2.819859,-1.6005 z"
       id="path8861"
       inkscape:connector-curvature="0"
       sodipodi:nodetypes="cccc"
       inkscape:label="highlight" /><ellipse
       transform="matrix(1.029538,0,0,1.1281495,-39.470994,-1128.0797)"
       style="opacity:0.828;fill:#ffffff;fill-opacity:1;stroke:none;stroke-width:1.01774;stroke-linecap:butt;stroke-linejoin:round;stroke-miterlimit:4;stroke-dasharray:none;stroke-opacity:1;filter:url(#filter8835)"
       id="path8817"
       cx="59.521938"
       cy="1014.637"
       rx="1.9053118"
       ry="1.9815242"
       inkscape:label="highlight" /><path
       transform="matrix(1.7350569,0,0,1.8824502,-91.814902,-1903.1505)"
       style="display:inline;opacity:0.862;fill:#ffffff;fill-opacity:1;stroke:none;stroke-width:0.606909px;stroke-linecap:butt;stroke-linejoin:miter;stroke-opacity:1;filter:url(#filter2533)"
       d="m 70.953811,1023.4014 v -1.8291 l 2.972286,-0.076 z"
       id="path8875"
       inkscape:connector-curvature="0"
       inkscape:label="highlight" /><path
       transform="matrix(1.029538,0,0,1.1281495,-39.928294,-1128.6206)"
       style="display:inline;opacity:0.485;fill:#ffffff;fill-opacity:1;stroke:none;stroke-width:1.01774px;stroke-linecap:butt;stroke-linejoin:miter;stroke-opacity:1;filter:url(#filter8871-1)"
       d="m 53.924652,1016.631 -0.152427,10.8222 c 2.375507,-3.3036 3.484206,-4.2052 2.972286,-9.2217 0.305009,-1.654 -1.117834,-1.7529 -2.819859,-1.6005 z"
       id="path8861-7"
       inkscape:connector-curvature="0"
       sodipodi:nodetypes="cccc"
       inkscape:label="highlight" /></g><g
     inkscape:label="Foreground"
     inkscape:groupmode="layer"
     id="layer1"
     style="display:inline"
     transform="translate(0,-986.3622)"><g
       id="g1"
       inkscape:label="jar"
       transform="translate(-20.000001,7.9532006)"><path
         style="display:inline;fill:#b3c7de;fill-opacity:1;stroke:none"
         d="m 32.18464,1002.9251 h 14.173328 c 1.424449,5.2237 8.684639,8.0056 8.684639,15.8058 v 11.6063 c 0,4.7278 -3.873347,8.534 -8.684639,8.534 H 32.18464 c -4.811293,0 -8.68464,-3.8062 -8.68464,-8.534 v -11.6063 c 0,-8.005 7.34086,-10.8778 8.68464,-15.8058 z"
         id="rect4044"
         inkscape:connector-curvature="0"
         sodipodi:nodetypes="ccssssssc" /><path
         style="display:inline;fill:url(#radialGradient4091);fill-opacity:1;stroke:none"
         d="m 32.008972,1002.4886 h 14.17333 c 1.42445,5.2237 8.68464,8.0057 8.68464,15.8058 v 11.6064 c 0,4.7278 -3.87335,8.534 -8.68464,8.534 h -14.17333 c -4.811293,0 -8.68464,-3.8062 -8.68464,-8.534 v -11.6064 c 0,-8.005 7.34086,-10.8778 8.68464,-15.8058 z"
         id="rect4044-7"
         inkscape:connector-curvature="0"
         sodipodi:nodetypes="ccssssssc" /><ellipse
         style="display:inline;opacity:0.607;fill:#edf3f8;fill-opacity:1;stroke:none;stroke-width:1;stroke-linecap:round;stroke-linejoin:miter;stroke-miterlimit:4;stroke-dasharray:none;stroke-dashoffset:0;stroke-opacity:1;filter:url(#filter5214)"
         id="path5100"
         cx="39.495609"
         cy="1036.3666"
         rx="12.5"
         ry="3" /><path
         style="display:inline;fill:#a2bcd8;fill-opacity:1;fill-rule:evenodd;stroke:none;stroke-width:1px;stroke-linecap:butt;stroke-linejoin:miter;stroke-opacity:1;filter:url(#filter5127-8)"
         d="m 105.07875,49.208627 c -8.837942,6.696584 -5.930277,-17.257825 -4.27177,-18.978844 l 0.36615,13.791701 c 0,0 0.061,4.576891 3.90562,5.187143 z"
         id="path5113-6"
         inkscape:connector-curvature="0"
         sodipodi:nodetypes="cccc"
         transform="matrix(-1,0,0,1,153.66201,984.35274)" /><path
         style="display:inline;opacity:1;fill:#d1d5ce;fill-opacity:1;stroke:none;stroke-width:1;stroke-linecap:round;stroke-linejoin:miter;stroke-miterlimit:4;stroke-dasharray:none;stroke-dashoffset:0;stroke-opacity:1;filter:url(#filter5205)"
         d="m 47.417079,1006.9028 c 0.295346,1.3154 -3.224791,1.9528 -8.482505,1.9528 -5.257715,0 -8.317176,-0.9249 -8.116355,-2.2579 0.250201,-1.6609 3.563671,-1.7644 8.05533,-1.7088 5.099314,0.063 8.087108,-0.019 8.54353,2.0139 z"
         id="path5179"
         inkscape:connector-curvature="0"
         sodipodi:nodetypes="sssss" /><path
         sodipodi:type="star"
         style="display:inline;opacity:0.9;fill:#fefdd7;fill-opacity:0.87538;stroke:none;stroke-width:0;stroke-miterlimit:4;stroke-dasharray:none;filter:url(#filter4285-9-8-5)"
         id="path4252-6-0-8"
         sodipodi:sides="4"
         sodipodi:cx="4.7729707"
         sodipodi:cy="1041.2474"
         sodipodi:r1="3.3255017"
         sodipodi:r2="0.49178758"
         sodipodi:arg1="2.432965"
         sodipodi:arg2="-3.0800218"
         inkscape:flatsided="false"
         inkscape:rounded="0"
         inkscape:randomized="-0.017554997"
         d="m 2.2999628,1043.3702 1.9823895,-2.1047 -1.6734053,-2.5419 2.1987064,2.0209 2.4513363,-1.6427 -2.0383649,2.1623 1.7419712,2.4882 -2.2030799,-2.0431 z"
         transform="matrix(0.22260765,1.6233698,-1.632842,-0.00450151,1730.7607,1010.0247)"
         inkscape:transform-center-x="-0.08889601"
         inkscape:transform-center-y="0.41892685" /><path
         style="fill:none;fill-rule:evenodd;stroke:#f2f8fd;stroke-width:0.931161px;stroke-linecap:butt;stroke-linejoin:miter;stroke-opacity:1;filter:url(#filter5355)"
         d="m 28.708879,1009.9475 c -1.477481,1.9359 -2.98703,3.9919 -3.565257,6.3929 -1.141967,5.0531 -0.69538,10.337 -0.412422,15.2002 0.10232,1.4238 1.030543,2.6873 2.219855,3.4247"
         id="path5245"
         inkscape:connector-curvature="0"
         sodipodi:nodetypes="cccc"
         transform="matrix(1.1287543,0,0,1.0217639,-3.1136931,-22.519981)" /><path
         style="display:inline;opacity:0.799;fill:#ffffff;fill-opacity:1;stroke:none;stroke-width:1.5;stroke-linecap:round;stroke-linejoin:miter;stroke-miterlimit:4;stroke-dasharray:none;stroke-dashoffset:0;stroke-opacity:1;filter:url(#filter5535)"
         d="m 44.264734,1011.5996 a 19.925179,19.996828 0 0 0 -16.566406,8.9061 13.02639,11.919721 0 0 0 -0.08789,1.3262 13.02639,11.919721 0 0 0 13.027344,11.9199 13.02639,11.919721 0 0 0 13.025391,-11.9199 13.02639,11.919721 0 0 0 -5.744141,-9.8788 19.925179,19.996828 0 0 0 -3.654298,-0.3535 z"
         id="path5381-3"
         inkscape:connector-curvature="0"
         transform="matrix(0.79757984,0,0,0.78004748,6.1415043,216.15002)" /><path
         style="display:inline;fill:#a2bcd8;fill-opacity:1;fill-rule:evenodd;stroke:none;stroke-width:1px;stroke-linecap:butt;stroke-linejoin:miter;stroke-opacity:1;filter:url(#filter5127)"
         d="m 30.574128,1033.8149 c -8.543451,6.8929 -5.613924,-17.0469 -4.271766,-18.9788 l 0.366151,13.7917 c 0,0 0.06103,4.5769 3.905615,5.1871 z"
         id="path5113"
         inkscape:connector-curvature="0"
         sodipodi:nodetypes="cccc" /><path
         style="fill:none;fill-rule:evenodd;stroke:#f0f7fc;stroke-width:0.808851px;stroke-linecap:butt;stroke-linejoin:miter;stroke-opacity:1;filter:url(#filter5311)"
         d="m 30.549867,1007.6066 c 0.328269,0.1642 0.191646,0.1528 0.381873,0.1528 0.05092,0 0.103353,-0.012 0.152749,0 0.51444,0.1286 0.0012,0 0.15275,0.1527 0.018,0.018 0.0536,-0.011 0.07637,0 0.23291,0.1165 -0.139685,0.061 0.229124,0.1528 0.0494,0.012 0.101833,0 0.15275,0 0.02546,0 0.05519,-0.014 0.07637,0 0.05991,0.04 0.08657,0.1244 0.15275,0.1527 0.119316,0.051 0.257056,0.041 0.381873,0.076 0.05474,0.016 0.09874,0.058 0.152749,0.076 0.0483,0.016 0.107209,-0.023 0.15275,0 0.0322,0.016 0.04176,0.067 0.07637,0.076 0.859473,0.2455 0.187983,0.023 0.610998,0.076 0.15366,0.019 0.306399,0.046 0.458248,0.076 0.102928,0.021 0.200962,0.067 0.305498,0.076 0.177476,0.016 0.356415,0 0.534623,0 0.381873,0 0.763747,0 1.14562,0 0.132788,0 0.522725,-0.018 0.610997,0 0.0353,0.01 0.04222,0.065 0.07637,0.076 0.07246,0.024 0.152749,0 0.229124,0 0.127291,0 0.254582,0 0.381873,0 0.04249,0 0.302548,-0.016 0.381874,0 0.102928,0.021 0.201586,0.062 0.305498,0.076 0.10081,0.014 0.203666,0 0.305499,0 0.28004,0 0.560081,0 0.840121,0 0.0995,0 0.296904,-0.017 0.381874,0 0.07894,0.016 0.151021,0.057 0.229124,0.076 0.0247,0.01 0.05092,0 0.07637,0 0.127291,0 0.254583,0 0.381874,0 0.432789,0 0.865579,0 1.298369,0 0.101833,0 0.203666,0 0.305499,0 0.05092,0 0.101833,0 0.152749,0 0.02546,0 0.05168,-0.01 0.07638,0 0.0781,0.019 0.150181,0.061 0.229124,0.076 0.09985,0.02 0.204452,-0.013 0.305498,0 0.153661,0.019 0.304948,0.054 0.458248,0.076 0.115408,0.017 0.33899,0 0.458248,0 0.280041,0 0.560081,0 0.840122,0 0.356415,0 0.71283,0 1.069245,0 0.02546,0 0.05092,0 0.07637,0 0.02546,0 0.05837,0.018 0.07637,0 0.018,-0.018 -0.018,-0.058 0,-0.076 0.01633,-0.016 0.263392,0.014 0.305499,0 0.05401,-0.018 0.09874,-0.058 0.152749,-0.076 0.0483,-0.016 0.107209,0.023 0.15275,0 0.0322,-0.016 0.04222,-0.065 0.07637,-0.076 0.0483,-0.016 0.101833,0 0.15275,0 0.07797,0 0.497517,0.012 0.534622,0 0.03416,-0.011 0.04417,-0.06 0.07637,-0.076 0.04554,-0.023 0.107208,0.023 0.152749,0 0.0322,-0.016 0.04417,-0.06 0.07637,-0.076 0.04554,-0.023 0.116746,0.036 0.152749,0 0.018,-0.018 -0.018,-0.058 0,-0.076 0.018,-0.018 0.0536,0.011 0.07638,0 0.0322,-0.016 0.04417,-0.06 0.07637,-0.076 0.02277,-0.011 0.0536,0.011 0.07637,0 0.317853,-0.1589 -0.08165,0.01 0.07637,-0.1527 0.036,-0.036 0.116746,0.036 0.152749,0 0.018,-0.018 -0.01139,-0.054 0,-0.076 0.0161,-0.032 0.06027,-0.044 0.07637,-0.076 0.01138,-0.023 -0.018,-0.058 0,-0.076 0.018,-0.018 0.05837,0.018 0.07637,0 0.036,-0.036 -0.036,-0.1168 0,-0.1528 0.018,-0.018 0.05837,0.018 0.07637,0 0.018,-0.018 0,-0.051 0,-0.076 0,-0.025 0,-0.051 0,-0.076"
         id="path5285"
         inkscape:connector-curvature="0"
         transform="matrix(1,0,0,1.5284921,0,-532.51213)" /><path
         style="display:inline;fill:none;stroke:url(#linearGradient4093);stroke-width:1;stroke-linecap:butt;stroke-linejoin:round;stroke-miterlimit:4;stroke-dasharray:none;stroke-dashoffset:0;stroke-opacity:1"
         d="m 32.18464,1002.9251 h 14.173328 c 1.424449,5.2237 8.684639,8.0056 8.684639,15.8058 v 11.6063 c 0,4.7278 -3.873347,8.534 -8.684639,8.534 H 32.18464 c -4.811293,0 -8.68464,-3.8062 -8.68464,-8.534 v -11.6063 c 0,-8.005 7.34086,-10.8778 8.68464,-15.8058 z"
         id="rect4044-1"
         inkscape:connector-curvature="0"
         sodipodi:nodetypes="ccssssssc" /><rect
         style="display:inline;fill:url(#linearGradient4095);fill-opacity:1;stroke:url(#linearGradient4097);stroke-width:1;stroke-linecap:butt;stroke-linejoin:round;stroke-miterlimit:4;stroke-dasharray:none;stroke-dashoffset:0;stroke-opacity:1"
         id="rect4815"
         width="25.845484"
         height="6.7589974"
         x="26.34856"
         y="997.86218"
         rx="2.3969603"
         ry="2.3554082" /></g><g
       id="g4307"
       style="display:inline"
       transform="rotate(135,25.40266,1028.1893)"
       inkscape:label="green-arrow"><path
         style="fill:url(#linearGradient4533);fill-opacity:1;fill-rule:evenodd;stroke:#398a43;stroke-width:1px;stroke-linecap:butt;stroke-linejoin:miter;stroke-opacity:1"
         d="m 1.356263,1009.9318 c 0.24182,-0.7378 4.276215,4.6418 4.276215,4.6418 11.44876,-7.9356 17.573348,1.4122 16.632852,8.3285 -0.287455,2.114 -2.873263,-9.5491 -13.24418,-4.9398 0,0 6.161054,4.0913 5.456972,5.1523 -0.390532,0.5886 -13.008987,0.7195 -13.731155,-0.03 -0.722169,-0.75 0.343071,-12.3401 0.609296,-13.1524 z"
         id="path4522"
         inkscape:connector-curvature="0"
         sodipodi:nodetypes="scscszs" /><path
         style="display:inline;fill:none;fill-opacity:1;fill-rule:evenodd;stroke:url(#linearGradient4584);stroke-width:1px;stroke-linecap:butt;stroke-linejoin:miter;stroke-opacity:1"
         d="m 1.57134,1022.8745 c -0.335464,-3.4409 0.540551,-10.8513 0.558812,-11.097 0.130143,0.1351 3.305251,4.1177 3.305251,4.1177 13.489832,-9.4517 15.979945,3.8837 15.944315,4.5632 0,0 -4.159907,-8.1407 -14.425918,-2.5964 3.722931,2.2 6.36447,4.7334 6.416153,4.8694"
         id="path4522-3"
         inkscape:connector-curvature="0"
         sodipodi:nodetypes="cccscc" /></g></g></svg>
