<?xml version="1.0" encoding="UTF-8" standalone="no"?>
<!-- Created with Inkscape (http://www.inkscape.org/) -->

<svg
   width="75"
   height="66"
   id="svg2"
   version="1.1"
   xml:space="preserve"
   xmlns:xlink="http://www.w3.org/1999/xlink"
   xmlns="http://www.w3.org/2000/svg"
   xmlns:svg="http://www.w3.org/2000/svg"
   xmlns:rdf="http://www.w3.org/1999/02/22-rdf-syntax-ns#"
   xmlns:cc="http://creativecommons.org/ns#"
   xmlns:dc="http://purl.org/dc/elements/1.1/"><defs
     id="defs4"><linearGradient
       id="linearGradient4"><stop
         style="stop-color:#2d639b;stop-opacity:1;"
         offset="0"
         id="stop4" /><stop
         style="stop-color:#a3bad2;stop-opacity:1;"
         offset="1"
         id="stop5" /></linearGradient><linearGradient
       xlink:href="#linearGradient4972-7"
       id="linearGradient4978"
       x1="88.220116"
       y1="1032.2668"
       x2="163.22012"
       y2="1032.2668"
       gradientUnits="userSpaceOnUse"
       gradientTransform="translate(-88.220116,-999.2669)" /><linearGradient
       id="linearGradient4972-7"><stop
         style="stop-color:#b8ccf1;stop-opacity:0.10196079"
         offset="0"
         id="stop4974-8" /><stop
         style="stop-color:#6e97e2;stop-opacity:0.10196079"
         offset="1"
         id="stop4976-1" /></linearGradient><linearGradient
       xlink:href="#linearGradient4964-3"
       id="linearGradient4970"
       x1="118.38584"
       y1="1032.1835"
       x2="163.22012"
       y2="1032.2668"
       gradientUnits="userSpaceOnUse"
       gradientTransform="translate(-88.220117,-999.2669)" /><linearGradient
       id="linearGradient4964-3"><stop
         style="stop-color:#ffffff;stop-opacity:0.349"
         offset="0"
         id="stop4966-1" /><stop
         style="stop-color:#91ade6;stop-opacity:1"
         offset="1"
         id="stop4968-1" /></linearGradient><linearGradient
       xlink:href="#linearGradient4956-2"
       id="linearGradient4962"
       x1="88.220116"
       y1="1042.7972"
       x2="163.22012"
       y2="1042.7972"
       gradientUnits="userSpaceOnUse"
       gradientTransform="translate(-88.220116,-999.2669)" /><linearGradient
       id="linearGradient4956-2"><stop
         style="stop-color:#fcfdfe;stop-opacity:0.25641027"
         offset="0"
         id="stop4958-5" /><stop
         style="stop-color:#98aae7;stop-opacity:0.40392157"
         offset="1"
         id="stop4960-6" /></linearGradient><linearGradient
       xlink:href="#linearGradient4994"
       id="linearGradient6375-6"
       x1="50.702839"
       y1="1052.4476"
       x2="22.530088"
       y2="1014.1386"
       gradientUnits="userSpaceOnUse"
       gradientTransform="matrix(0.66235895,0,0,0.70707433,29.627095,294.05583)" /><linearGradient
       id="linearGradient4994"><stop
         id="stop4996"
         offset="0"
         style="stop-color:#ffffff;stop-opacity:1" /><stop
         id="stop4998"
         offset="1"
         style="stop-color:#dbe2eb;stop-opacity:1" /></linearGradient><linearGradient
       xlink:href="#linearGradient4902"
       id="linearGradient4238"
       gradientUnits="userSpaceOnUse"
       gradientTransform="matrix(2.2925445,0,0,2.4122725,29.437511,-1497.4569)"
       x1="10.544736"
       y1="1038.5779"
       x2="10.544736"
       y2="1052.3228" /><linearGradient
       id="linearGradient4902"><stop
         id="stop4904"
         offset="0"
         style="stop-color:#c7b571;stop-opacity:1;" /><stop
         id="stop4906"
         offset="1"
         style="stop-color:#9a9a8f;stop-opacity:1" /></linearGradient><linearGradient
       xlink:href="#linearGradient6411"
       id="linearGradient4240"
       gradientUnits="userSpaceOnUse"
       gradientTransform="matrix(0.66235895,0,0,0.70707433,29.627095,294.05581)"
       x1="52.166088"
       y1="1020.8994"
       x2="47.429596"
       y2="1023.1616" /><linearGradient
       id="linearGradient6411"><stop
         style="stop-color:#4f605c;stop-opacity:1"
         offset="0"
         id="stop6413" /><stop
         style="stop-color:#dbe2eb;stop-opacity:0"
         offset="1"
         id="stop6415" /></linearGradient><linearGradient
       xlink:href="#linearGradient4258"
       id="linearGradient4264"
       x1="59.220116"
       y1="1021.2669"
       x2="62.220116"
       y2="1025.2668"
       gradientUnits="userSpaceOnUse"
       gradientTransform="matrix(1.1922461,0,0,1.2728781,-10.09864,-290.57342)" /><linearGradient
       id="linearGradient4258"><stop
         style="stop-color:#f4ae5f;stop-opacity:1;"
         offset="0"
         id="stop4260" /><stop
         id="stop4266"
         offset="0.41542953"
         style="stop-color:#eec290;stop-opacity:1" /><stop
         style="stop-color:#c7700e;stop-opacity:1"
         offset="1"
         id="stop4262" /></linearGradient><filter
       height="1.0954513"
       y="-0.047725668"
       width="1.0967932"
       x="-0.048396592"
       id="filter4285-9"
       style="color-interpolation-filters:sRGB"><feGaussianBlur
         id="feGaussianBlur4287-9"
         stdDeviation="0.10000000000000001" /></filter><linearGradient
       id="linearGradient4308"><stop
         style="stop-color:#d5d2d9;stop-opacity:1"
         offset="0"
         id="stop4310" /><stop
         style="stop-color:#ffffff;stop-opacity:0.328"
         offset="1"
         id="stop4312" /></linearGradient><linearGradient
       xlink:href="#linearGradient4308"
       id="linearGradient6406"
       gradientUnits="userSpaceOnUse"
       x1="49.217129"
       y1="1041.0833"
       x2="75.020309"
       y2="1023.2908" /><filter
       style="color-interpolation-filters:sRGB"
       id="filter4344"
       x="-0.027383926"
       width="1.0547679"
       y="-0.085576576"
       height="1.1711532"><feGaussianBlur
         stdDeviation="0.57051052"
         id="feGaussianBlur4346" /></filter><linearGradient
       id="linearGradient836"><stop
         style="stop-color:#79b14b;stop-opacity:1"
         offset="0"
         id="stop832" /><stop
         style="stop-color:#2a9449;stop-opacity:1"
         offset="1"
         id="stop834" /></linearGradient><linearGradient
       id="linearGradient10468"><stop
         style="stop-color:#d6f3b6;stop-opacity:1"
         offset="0"
         id="stop10464" /><stop
         id="stop10472"
         offset="0.48184019"
         style="stop-color:#61a342;stop-opacity:1" /><stop
         style="stop-color:#c2e9a3;stop-opacity:1"
         offset="1"
         id="stop10466" /></linearGradient><linearGradient
       xlink:href="#linearGradient10468"
       id="linearGradient10470"
       x1="4"
       y1="11"
       x2="4"
       y2="4"
       gradientUnits="userSpaceOnUse"
       gradientTransform="matrix(2.7332009,0,0,2.7874538,2.1344017,2.7816281)" /><filter
       style="color-interpolation-filters:sRGB"
       id="filter10710"
       x="-0.56371527"
       width="2.1274305"
       y="-0.6607788"
       height="2.3215576"><feGaussianBlur
         stdDeviation="0.70464408"
         id="feGaussianBlur10712" /></filter><linearGradient
       xlink:href="#linearGradient836"
       id="linearGradient838"
       x1="3.000002"
       y1="23.687532"
       x2="27"
       y2="24"
       gradientUnits="userSpaceOnUse" /><filter
       style="color-interpolation-filters:sRGB"
       id="filter1941"
       x="-0.051404932"
       width="1.1028099"
       y="-0.075606635"
       height="1.1512133"><feGaussianBlur
         stdDeviation="0.87812508"
         id="feGaussianBlur1943" /></filter><linearGradient
       xlink:href="#linearGradient4"
       id="linearGradient5"
       x1="49.818226"
       y1="1020.0432"
       x2="49.428432"
       y2="1013.5866"
       gradientUnits="userSpaceOnUse" /></defs><metadata
     id="metadata7"><rdf:RDF><cc:Work
         rdf:about=""><dc:format>image/svg+xml</dc:format><dc:type
           rdf:resource="http://purl.org/dc/dcmitype/StillImage" /></cc:Work></rdf:RDF></metadata><g
     id="layer2"
     style="display:inline"><path
       id="rect4113-1"
       d="M 75,0 V 66 H 1e-6 C 1e-6,41.2048 50.00969,0 75,0 Z"
       style="display:inline;fill:url(#linearGradient4978);fill-opacity:1;stroke:none" /><path
       id="rect4113-1-0"
       d="M 75,21.0607 V 66 H 1e-6 C 10.625001,47.804 43.509694,25.4357 75,21.0607 Z"
       style="display:inline;opacity:0.404;fill:url(#linearGradient4962);fill-opacity:1;stroke:none" /><path
       id="rect4113-1-7"
       d="M 75,4.0000001e-7 V 66 H 30.000003 C 30.000003,46.1545 47.70944,9.2500004 75,4e-7 Z"
       style="display:inline;opacity:0.184;fill:url(#linearGradient4970);fill-opacity:1;stroke:none" /></g><g
     id="layer1"
     style="display:inline"
     transform="translate(0,-986.3622)"><path
       id="rect4001-3-4-5-3"
       d="m 61.725004,1022.8099 21.27431,-0.1009 1.654984,3.7793 -20.678174,12.1198 -29.322882,0.1009 z"
       style="display:inline;opacity:0.63;fill:url(#linearGradient6406);fill-opacity:1;stroke:none;filter:url(#filter4344)"
       transform="matrix(0.74942226,0,0,0.66945086,13.768515,330.84634)" /><g
       id="g6194"
       transform="translate(-4.2813155,-15.35456)"><path
         style="display:inline;fill:url(#linearGradient6375-6);fill-opacity:1;stroke:none"
         d="m 42,1008.5848 16.29082,-0.1952 6.27458,7.3158 0.0609,23.4616 -22.504471,0.1952 z"
         id="rect4001-3-4" /><path
         style="display:inline;fill:none;stroke:url(#linearGradient4238);stroke-width:1;stroke-linecap:butt;stroke-linejoin:miter;stroke-miterlimit:4;stroke-dashoffset:0;stroke-opacity:1"
         d="m 42.040276,1008.6618 h 16.069976 c 0,0 4.831789,1.013 3.606431,3.347 -0.038,0.073 3.323597,3.9796 3.323597,3.9796 v 23.6381 H 42.040276 Z"
         id="rect4001-1" /><path
         style="display:inline;fill:url(#linearGradient4240);fill-opacity:1;stroke:none"
         d="m 58.29082,1008.6404 6.24946,7.1305 v 7.4102 l -9.171466,-6.482 c 1.202872,-2.5994 2.07431,-5.3145 2.921956,-8.0587 z"
         id="rect4001-3-9-0" /><path
         style="display:inline;fill:url(#linearGradient4264);fill-opacity:1;fill-rule:evenodd;stroke:none;stroke-width:1px;stroke-linecap:butt;stroke-linejoin:miter;stroke-opacity:1"
         d="m 58.123726,1008.1339 c 1.348521,1.8713 2.974695,4.2652 1.769413,8.3553 2.773472,-1.598 5.647141,-0.7504 5.647141,-0.7504 0,-3.8185 -4.550947,-7.7849 -7.416554,-7.6049 z"
         id="path5675-4" /><path
         transform="matrix(0,0.69810267,-0.69299598,0,783.20728,1008.8838)"
         d="m 2.2999628,1043.3702 1.9823895,-2.1047 -1.6734053,-2.5419 2.1987064,2.0209 2.4513363,-1.6427 -2.0383649,2.1623 1.7419712,2.4882 -2.2030799,-2.0431 z"
         id="path4252-6"
         style="display:inline;opacity:0.9;fill:#ffffff;fill-opacity:0.815842;stroke:none;stroke-width:0;stroke-miterlimit:4;stroke-dasharray:none;filter:url(#filter4285-9)" /><path
         style="font-weight:bold;font-size:13.7221px;font-family:Helvetica;-inkscape-font-specification:'Helvetica Bold';display:inline;fill:url(#linearGradient5);fill-rule:evenodd;stroke:none;stroke-width:1.5;stroke-linecap:square;stroke-miterlimit:2;stroke-opacity:0.894118"
         d="m 47.888554,1015.559 q -0.321612,0.4288 -0.308211,1.1458 h -1.782265 q 0.0268,-0.7237 0.247909,-1.3736 0.234508,-0.5695 0.737027,-1.0519 0.375213,-0.3417 0.891132,-0.5226 0.515919,-0.1809 1.266346,-0.1809 1.393651,0 2.244582,0.7236 0.857631,0.7169 0.857631,1.9297 0,0.8576 -0.509218,1.4472 -0.321612,0.3685 -0.670025,0.5025 0.26131,0 0.750428,0.4489 0.730326,0.6768 0.730326,1.8493 0,1.2329 -0.857631,2.1709 -0.850931,0.9313 -2.525992,0.9313 -2.063675,0 -2.867704,-1.3467 -0.422116,-0.717 -0.469018,-1.8761 h 1.876069 q 0,0.5829 0.187607,0.9648 0.348412,0.7036 1.266346,0.7036 0.56282,0 0.978236,-0.3819 0.422115,-0.3887 0.422115,-1.1123 0,-0.9581 -0.777228,-1.2797 -0.442217,-0.1809 -1.393651,-0.1809 v -1.3669 q 0.931334,-0.013 1.299847,-0.1809 0.636523,-0.2814 0.636523,-1.139 0,-0.5562 -0.328312,-0.9046 -0.321611,-0.3484 -0.911233,-0.3484 -0.676725,0 -0.991636,0.4288 z m 5.862714,5.7823 h 2.030174 v 1.9967 h -2.030174 z m 6.733745,2.2379 q -1.855967,0 -2.606395,-1.2998 -0.743727,-1.2999 -0.743727,-3.7053 0,-2.4053 0.743727,-3.7119 0.750428,-1.3065 2.606395,-1.3065 1.855968,0 2.606395,1.3065 0.743728,1.3066 0.743728,3.7119 0,2.4054 -0.750428,3.7053 -0.743727,1.2998 -2.599695,1.2998 z m 1.118941,-2.4456 q 0.26131,-0.8844 0.26131,-2.5595 0,-1.7554 -0.26801,-2.5997 -0.26131,-0.8442 -1.112241,-0.8442 -0.850931,0 -1.125641,0.8442 -0.27471,0.8443 -0.27471,2.5997 0,1.6751 0.27471,2.5662 0.27471,0.8845 1.125641,0.8845 0.850931,0 1.118941,-0.8912 z"
         id="text1"
         transform="matrix(1.0057659,0,0,0.99426716,-1.4475094,11.319434)"
         aria-label="3.0" /></g><g
       id="g2"
       transform="translate(1.7681656,1006.3105)"><path
         style="display:inline;opacity:0.51;fill:#808080;fill-opacity:1;stroke:none;stroke-width:0.961952;stroke-linecap:round;stroke-linejoin:round;stroke-miterlimit:4;stroke-dasharray:none;stroke-opacity:1;filter:url(#filter1941)"
         d="m -37.166988,22.750262 v 8.362364 h -6.950445 a 10.930652,11.147621 0 0 0 -9.448761,-5.57491 10.930652,11.147621 0 0 0 -10.932804,11.149817 10.930652,11.147621 0 0 0 10.932804,11.149813 10.930652,11.147621 0 0 0 9.454099,-5.574907 h 6.945107 v 8.362363 l 13.666005,-13.937269 z"
         id="path10459-7"
         transform="matrix(1.033989,0,0,1.0493305,69.611421,-12.347266)" /><path
         style="display:inline;opacity:1;fill:url(#linearGradient10470);fill-opacity:1;stroke:url(#linearGradient838);stroke-width:1.002;stroke-linecap:round;stroke-linejoin:round;stroke-miterlimit:4;stroke-dasharray:none;stroke-opacity:1"
         d="M 30.833012,9.7502621 V 18.112626 H 23.882567 A 10.930652,11.147621 0 0 0 14.433806,12.537716 10.930652,11.147621 0 0 0 3.5010022,23.687533 10.930652,11.147621 0 0 0 14.433806,34.837346 10.930652,11.147621 0 0 0 23.887905,29.262439 h 6.945107 v 8.362363 L 44.499017,23.687533 Z"
         id="path10459" /><ellipse
         style="opacity:1;fill:#ffffff;fill-opacity:1;stroke:none;stroke-width:0.469644;stroke-linecap:round;stroke-linejoin:round;stroke-miterlimit:4;stroke-dasharray:none;stroke-opacity:1;filter:url(#filter10710)"
         id="path10474"
         cx="11"
         cy="20"
         rx="1.5"
         ry="1.2796611"
         transform="matrix(2.0846209,0,0,2.1835921,-10.303899,-22.157244)" /></g></g></svg>
