<?xml version="1.0" encoding="UTF-8" standalone="no"?>
<!-- Created with Inkscape (http://www.inkscape.org/) -->

<svg
   width="75"
   height="66"
   id="svg2"
   version="1.1"
   xmlns:xlink="http://www.w3.org/1999/xlink"
   xmlns="http://www.w3.org/2000/svg"
   xmlns:svg="http://www.w3.org/2000/svg"
   xmlns:rdf="http://www.w3.org/1999/02/22-rdf-syntax-ns#"
   xmlns:cc="http://creativecommons.org/ns#"
   xmlns:dc="http://purl.org/dc/elements/1.1/">
  <defs
     id="defs4">
    <linearGradient
       id="linearGradient8785">
      <stop
         style="stop-color:#bb8d2d;stop-opacity:1"
         offset="0"
         id="stop8781" />
      <stop
         id="stop8789"
         offset="0.49535784"
         style="stop-color:#ac7400;stop-opacity:1" />
      <stop
         style="stop-color:#b07905;stop-opacity:1"
         offset="1"
         id="stop8783" />
    </linearGradient>
    <linearGradient
       id="linearGradient8777">
      <stop
         style="stop-color:#fbeaab;stop-opacity:1;"
         offset="0"
         id="stop8773" />
      <stop
         style="stop-color:#deb241;stop-opacity:1"
         offset="1"
         id="stop8775" />
    </linearGradient>
    <linearGradient
       id="linearGradient8767">
      <stop
         style="stop-color:#6a8ec1;stop-opacity:1"
         offset="0"
         id="stop8763" />
      <stop
         style="stop-color:#80a1cf;stop-opacity:1"
         offset="1"
         id="stop8765" />
    </linearGradient>
    <linearGradient
       id="linearGradient8759">
      <stop
         style="stop-color:#d3e0eb;stop-opacity:1"
         offset="0"
         id="stop8755" />
      <stop
         style="stop-color:#5179b5;stop-opacity:1"
         offset="1"
         id="stop8757" />
    </linearGradient>
    <linearGradient
       id="linearGradient8751">
      <stop
         style="stop-color:#2e5d8f;stop-opacity:1"
         offset="0"
         id="stop8747" />
      <stop
         style="stop-color:#6085bb;stop-opacity:1"
         offset="1"
         id="stop8749" />
    </linearGradient>
    <linearGradient
       id="linearGradient8490">
      <stop
         style="stop-color:#fdfefd;stop-opacity:1"
         offset="0"
         id="stop8486" />
      <stop
         style="stop-color:#9abd9a;stop-opacity:1"
         offset="1"
         id="stop8488" />
    </linearGradient>
    <linearGradient
       id="linearGradient8458">
      <stop
         style="stop-color:#c1cee6;stop-opacity:1"
         offset="0"
         id="stop8454" />
      <stop
         style="stop-color:#3461ab;stop-opacity:1"
         offset="1"
         id="stop8456" />
    </linearGradient>
    <linearGradient
       xlink:href="#linearGradient4972-7"
       id="linearGradient4978"
       x1="88.220116"
       y1="1032.2668"
       x2="163.22012"
       y2="1032.2668"
       gradientUnits="userSpaceOnUse"
       gradientTransform="translate(-88.220116,-999.2669)" />
    <linearGradient
       id="linearGradient4972-7">
      <stop
         style="stop-color:#b8ccf1;stop-opacity:0.10196079"
         offset="0"
         id="stop4974-8" />
      <stop
         style="stop-color:#6e97e2;stop-opacity:0.10196079"
         offset="1"
         id="stop4976-1" />
    </linearGradient>
    <linearGradient
       xlink:href="#linearGradient4964-3"
       id="linearGradient4970"
       x1="118.38584"
       y1="1032.1835"
       x2="163.22012"
       y2="1032.2668"
       gradientUnits="userSpaceOnUse"
       gradientTransform="translate(-88.220117,-999.2669)" />
    <linearGradient
       id="linearGradient4964-3">
      <stop
         style="stop-color:#ffffff;stop-opacity:0.349"
         offset="0"
         id="stop4966-1" />
      <stop
         style="stop-color:#91ade6;stop-opacity:1"
         offset="1"
         id="stop4968-1" />
    </linearGradient>
    <linearGradient
       xlink:href="#linearGradient4956-2"
       id="linearGradient4962"
       x1="88.220116"
       y1="1042.7972"
       x2="163.22012"
       y2="1042.7972"
       gradientUnits="userSpaceOnUse"
       gradientTransform="translate(-88.220116,-999.2669)" />
    <linearGradient
       id="linearGradient4956-2">
      <stop
         style="stop-color:#fcfdfe;stop-opacity:0.25641027"
         offset="0"
         id="stop4958-5" />
      <stop
         style="stop-color:#98aae7;stop-opacity:0.40392157"
         offset="1"
         id="stop4960-6" />
    </linearGradient>
    <linearGradient
       xlink:href="#linearGradient4994"
       id="linearGradient6375-6"
       x1="50.702839"
       y1="1052.4476"
       x2="22.530088"
       y2="1014.1386"
       gradientUnits="userSpaceOnUse"
       gradientTransform="matrix(0.95292719,0,0,0.9400082,-4.3529074,51.703107)" />
    <linearGradient
       id="linearGradient4994">
      <stop
         id="stop4996"
         offset="0"
         style="stop-color:#ffffff;stop-opacity:1" />
      <stop
         id="stop4998"
         offset="1"
         style="stop-color:#dbe2eb;stop-opacity:1" />
    </linearGradient>
    <linearGradient
       xlink:href="#linearGradient4902"
       id="linearGradient4238"
       gradientUnits="userSpaceOnUse"
       gradientTransform="matrix(3.2881074,0,0,3.2719678,-4.5756557,-2398.3972)"
       x1="10.544736"
       y1="1038.5779"
       x2="10.544736"
       y2="1052.3228" />
    <linearGradient
       id="linearGradient4902">
      <stop
         id="stop4904"
         offset="0"
         style="stop-color:#c7b571;stop-opacity:1;" />
      <stop
         id="stop4906"
         offset="1"
         style="stop-color:#9a9a8f;stop-opacity:1" />
    </linearGradient>
    <linearGradient
       xlink:href="#linearGradient6411"
       id="linearGradient4240"
       gradientUnits="userSpaceOnUse"
       gradientTransform="matrix(0.9145639,0,0,0.92391963,-2.206999,67.629058)"
       x1="52.166088"
       y1="1020.8994"
       x2="47.429596"
       y2="1023.1616" />
    <linearGradient
       id="linearGradient6411">
      <stop
         style="stop-color:#4f605c;stop-opacity:1"
         offset="0"
         id="stop6413" />
      <stop
         style="stop-color:#dbe2eb;stop-opacity:0"
         offset="1"
         id="stop6415" />
    </linearGradient>
    <linearGradient
       xlink:href="#linearGradient4258"
       id="linearGradient4264"
       x1="59.220116"
       y1="1021.2669"
       x2="62.220116"
       y2="1025.2668"
       gradientUnits="userSpaceOnUse"
       gradientTransform="matrix(1.7683014,0,0,1.8268252,-65.185236,-863.52445)" />
    <linearGradient
       id="linearGradient4258">
      <stop
         style="stop-color:#f4ae5f;stop-opacity:1;"
         offset="0"
         id="stop4260" />
      <stop
         id="stop4266"
         offset="0.41542953"
         style="stop-color:#eec290;stop-opacity:1" />
      <stop
         style="stop-color:#c7700e;stop-opacity:1"
         offset="1"
         id="stop4262" />
    </linearGradient>
    <filter
       height="1.0954513"
       y="-0.047725668"
       width="1.0967932"
       x="-0.048396592"
       id="filter4285-9"
       style="color-interpolation-filters:sRGB">
      <feGaussianBlur
         id="feGaussianBlur4287-9"
         stdDeviation="0.10000000000000001" />
    </filter>
    <linearGradient
       xlink:href="#linearGradient4308"
       id="linearGradient6406"
       gradientUnits="userSpaceOnUse"
       x1="49.217129"
       y1="1041.0833"
       x2="75.020309"
       y2="1023.2908" />
    <linearGradient
       id="linearGradient4308">
      <stop
         style="stop-color:#d5d2d9;stop-opacity:1"
         offset="0"
         id="stop4310" />
      <stop
         style="stop-color:#ffffff;stop-opacity:0.328"
         offset="1"
         id="stop4312" />
    </linearGradient>
    <filter
       style="color-interpolation-filters:sRGB"
       id="filter4344"
       x="-0.027383926"
       width="1.0547679"
       y="-0.085576576"
       height="1.1711532">
      <feGaussianBlur
         stdDeviation="0.57051052"
         id="feGaussianBlur4346" />
    </filter>
    <linearGradient
       xlink:href="#linearGradient8458"
       id="linearGradient8460"
       x1="44"
       y1="1014.3622"
       x2="43"
       y2="1038.3622"
       gradientUnits="userSpaceOnUse" />
    <linearGradient
       xlink:href="#linearGradient8490"
       id="linearGradient8492"
       x1="89"
       y1="1054.3622"
       x2="102"
       y2="1068.3622"
       gradientUnits="userSpaceOnUse"
       gradientTransform="translate(-52.5,-34.49997)" />
    <linearGradient
       xlink:href="#linearGradient8490"
       id="linearGradient8492-0"
       x1="89"
       y1="1054.3622"
       x2="102"
       y2="1068.3622"
       gradientUnits="userSpaceOnUse"
       gradientTransform="matrix(0.41176473,0,0,0.41176481,3.676469,589.53652)" />
    <filter
       style="color-interpolation-filters:sRGB"
       id="filter8641"
       x="-0.096127967"
       width="1.1922559"
       y="-0.1596458"
       height="1.3192916">
      <feGaussianBlur
         stdDeviation="0.92592472"
         id="feGaussianBlur8643" />
    </filter>
    <linearGradient
       xlink:href="#linearGradient8759"
       id="linearGradient8761"
       x1="57"
       y1="1019.3622"
       x2="62"
       y2="1030.3622"
       gradientUnits="userSpaceOnUse" />
    <filter
       style="color-interpolation-filters:sRGB"
       id="filter8813"
       x="-0.53770523"
       width="2.0754105"
       y="-0.24307477"
       height="1.4861495">
      <feGaussianBlur
         stdDeviation="1.1269452"
         id="feGaussianBlur8815" />
    </filter>
    <filter
       style="color-interpolation-filters:sRGB"
       id="filter8835"
       x="-0.313344"
       width="1.626688"
       y="-0.30129232"
       height="1.6025846">
      <feGaussianBlur
         stdDeviation="0.49751501"
         id="feGaussianBlur8837" />
    </filter>
    <filter
       style="color-interpolation-filters:sRGB"
       id="filter8871"
       x="-0.41554753"
       width="1.8310951"
       y="-0.11828489"
       height="1.2365698">
      <feGaussianBlur
         stdDeviation="0.53588249"
         id="feGaussianBlur8873" />
    </filter>
    <filter
       style="color-interpolation-filters:sRGB"
       id="filter8881"
       x="-0.49425547"
       width="1.9885109"
       y="-0.77112415"
       height="2.5422483">
      <feGaussianBlur
         stdDeviation="0.61211194"
         id="feGaussianBlur8883" />
    </filter>
    <filter
       style="color-interpolation-filters:sRGB"
       id="filter8996"
       x="-0.088669853"
       width="1.1773397"
       y="-0.11527081"
       height="1.2305416">
      <feGaussianBlur
         stdDeviation="0.5635"
         id="feGaussianBlur8998" />
    </filter>
    <linearGradient
       xlink:href="#linearGradient8767"
       id="linearGradient9006"
       gradientUnits="userSpaceOnUse"
       x1="51.658199"
       y1="1020.4141"
       x2="51.933025"
       y2="1023.234" />
    <linearGradient
       xlink:href="#linearGradient8751"
       id="linearGradient9008"
       gradientUnits="userSpaceOnUse"
       x1="50"
       y1="1019.3622"
       x2="50"
       y2="1024.3622" />
    <linearGradient
       xlink:href="#linearGradient8777"
       id="linearGradient9010"
       gradientUnits="userSpaceOnUse"
       x1="63.98344"
       y1="1016.2225"
       x2="68.598152"
       y2="1026.0538" />
    <linearGradient
       xlink:href="#linearGradient8785"
       id="linearGradient9012"
       gradientUnits="userSpaceOnUse"
       x1="68.47998"
       y1="1015.6127"
       x2="67.683601"
       y2="1028.4165" />
    <filter
       style="color-interpolation-filters:sRGB"
       id="filter8871-1"
       x="-0.41554753"
       width="1.8310951"
       y="-0.11828489"
       height="1.2365698">
      <feGaussianBlur
         stdDeviation="0.53588249"
         id="feGaussianBlur8873-8" />
    </filter>
  </defs>
  <metadata
     id="metadata7">
    <rdf:RDF>
      <cc:Work
         rdf:about="">
        <dc:format>image/svg+xml</dc:format>
        <dc:type
           rdf:resource="http://purl.org/dc/dcmitype/StillImage" />
      </cc:Work>
    </rdf:RDF>
  </metadata>
  <g
     id="layer2"
     style="display:inline">
    <path
       id="rect4113-1"
       d="M 75,0 75,66 1e-6,66 C 1e-6,41.2048 50.00969,0 75,0 Z"
       style="display:inline;fill:url(#linearGradient4978);fill-opacity:1;stroke:none" />
    <path
       id="rect4113-1-0"
       d="M 75,21.0607 75,66 1e-6,66 C 10.625001,47.804 43.509694,25.4357 75,21.0607 Z"
       style="display:inline;opacity:0.40400002;fill:url(#linearGradient4962);fill-opacity:1;stroke:none" />
    <g
       id="g11331-3-1-1-7"
       style="display:inline"
       transform="matrix(0.27903303,0,0,0.27903303,-14.618136,-107.52874)">
      <g
         style="fill:#737986;fill-opacity:1;stroke:#595e68;stroke-opacity:1"
         id="g13408-8-2" />
    </g>
    <path
       id="rect4113-1-7"
       d="M 75,4.0000001e-7 75,66 30.000003,66 C 30.000003,46.1545 47.70944,9.2500004 75,4e-7 Z"
       style="display:inline;opacity:0.18399999;fill:url(#linearGradient4970);fill-opacity:1;stroke:none" />
  </g>
  <g
     id="layer1"
     style="display:inline"
     transform="translate(0,-986.3622)">
    <path
       id="rect4001-3-4-5"
       d="m 61.725004,1022.8099 21.27431,-0.1009 1.654984,3.7793 -20.678174,12.1198 -29.322882,0.1009 z"
       style="display:inline;opacity:0.62999998;fill:url(#linearGradient6406);fill-opacity:1;stroke:none;filter:url(#filter4344)"
       transform="matrix(1.0651476,0,0,0.83720885,-20.627749,171.5995)" />
    <path
       id="rect4001-3-4"
       d="m 13.663391,1000.9751 23.221829,0.3871 9.027157,9.726 0.08762,31.1905 -32.37689,0.2595 z"
       style="display:inline;fill:url(#linearGradient6375-6);fill-opacity:1;stroke:none;stroke-width:1" />
    <path
       id="rect4001-1"
       d="m 13.5,1000.8622 h 23.04854 c 0,0 6.930048,1.3741 5.172564,4.5397 -0.0545,0.099 4.766907,5.3979 4.766907,5.3979 v 32.0624 H 13.5 Z"
       style="fill:none;stroke:url(#linearGradient4238);stroke-width:1;stroke-linecap:butt;stroke-linejoin:miter;stroke-miterlimit:4;stroke-dashoffset:0;stroke-opacity:1" />
    <path
       id="rect4001-3-9-0"
       d="m 37.370949,1001.3622 8.629053,9.3172 v 9.6828 l -12.663665,-8.4699 c 1.660888,-3.3965 2.864141,-6.9443 4.034543,-10.5301 z"
       style="display:inline;fill:url(#linearGradient4240);fill-opacity:1;stroke:none;stroke-width:1.00000012" />
    <path
       id="path5675-4"
       d="m 36,1000.3707 c 2.000085,2.6856 4.411975,6.1214 2.624338,11.9915 4.113526,-2.2935 8.37566,-1.077 8.37566,-1.077 0,-5.4803 -6.749821,-11.1729 -10.999998,-10.9145 z"
       style="display:inline;fill:url(#linearGradient4264);fill-opacity:1;fill-rule:evenodd;stroke:none;stroke-width:1px;stroke-linecap:butt;stroke-linejoin:miter;stroke-opacity:1" />
    <path
       style="display:inline;opacity:0.9;fill:#ffffff;fill-opacity:0.81584156;stroke:none;stroke-width:0;stroke-miterlimit:4;stroke-dasharray:none;filter:url(#filter4285-9)"
       id="path4252-6"
       d="m 2.2999628,1043.3702 1.9823895,-2.1047 -1.6734053,-2.5419 2.1987064,2.0209 2.4513363,-1.6427 -2.0383649,2.1623 1.7419712,2.4882 -2.2030799,-2.0431 z"
       transform="matrix(0,0.85573635,-0.89764149,0,975.36983,1001.8184)" />
    <g
       id="g8557"
       transform="translate(-14,2.5936079e-5)">
      <ellipse
         ry="12.500009"
         rx="12.5"
         cy="1026.3622"
         cx="43"
         id="path8452"
         style="opacity:1;fill:url(#linearGradient8460);fill-opacity:1;stroke:#154881;stroke-width:0.99999994;stroke-linecap:butt;stroke-linejoin:miter;stroke-miterlimit:4;stroke-dasharray:none;stroke-opacity:1" />
      <ellipse
         ry="8.5000124"
         rx="8.5"
         cy="1026.3622"
         cx="43"
         id="path8452-2"
         style="display:inline;opacity:1;fill:none;fill-opacity:1;stroke:url(#linearGradient8492);stroke-width:2;stroke-linecap:butt;stroke-linejoin:miter;stroke-miterlimit:4;stroke-dasharray:none;stroke-opacity:1" />
      <ellipse
         ry="3.500006"
         rx="3.5000002"
         cy="1026.3622"
         cx="43"
         id="path8452-2-3"
         style="display:inline;opacity:1;fill:none;fill-opacity:1;stroke:url(#linearGradient8492-0);stroke-width:2;stroke-linecap:butt;stroke-linejoin:miter;stroke-miterlimit:4;stroke-dasharray:none;stroke-opacity:1" />
    </g>
    <path
       style="opacity:0.52100004;fill:#ffffff;fill-opacity:0.81584156;stroke:none;stroke-width:1px;stroke-linecap:butt;stroke-linejoin:miter;stroke-opacity:1;filter:url(#filter8641)"
       d="m 17.207763,1028.749 c 7.306631,-6.772 14.405975,-7.9839 22.922194,-6.4311 -4.27551,-7.06 -6.952168,-8.5211 -15.538905,-6.8744 -4.413263,2.3533 -8.532831,6.1883 -7.383289,13.3055 z"
       id="path8579" />
    <g
       id="g9048"
       transform="translate(-43.990779,-20.979869)">
      <path
         id="path8791"
         d="m 53.577367,1026.9835 -0.152425,-8.8407 0.91455,-1.2194 3.124711,-0.076 0.07621,-0.9908 h 0.91455 l -0.07621,1.9054 -3.048499,1.2194 -0.152425,4.9538 z"
         style="fill:#ffffff;fill-opacity:1;stroke:none;stroke-width:1px;stroke-linecap:butt;stroke-linejoin:miter;stroke-opacity:1;filter:url(#filter8813)" />
      <path
         transform="matrix(1.0486083,0,0,1.0499923,-3.0656229,-51.085241)"
         d="m 70.499999,1023.8622 -10e-7,0.7084 c 0,0.7154 -0.630695,1.3084 -1.581494,1.2913 -0.950799,-0.017 -1.418505,0 -1.418505,0 v 0.1348 c 0,1.0333 -0.846416,1.865 -1.897793,1.8652 l -1.204207,2e-4 c -0.993831,2e-4 -0.897896,0.3654 -0.897896,-1.9999 v -8 c 0,-2.3654 -0.149817,-2 0.897896,-2 h 1.204207 c 1.051377,0 1.897793,0.8319 1.897793,1.8652 v 0.1348 h 1.418506 c 0.876148,0 1.581494,0.5759 1.581494,1.2913 v 1.7087 z m 0.01,-3 h 3.99 v 3 h -3.7903 m -8.209702,-2 2e-6,-7.4174 c 0,-1.4308 -0.846416,-2.5826 -1.897793,-2.5826 h -2.204414 c -1.051377,0 -1.897793,1.1518 -1.897793,2.5826 v 1.4174 h -2.418506 c -0.876148,0 -1.581494,0.7039 -1.581494,1.5782 v 1.3017 3.1196 m 9.999998,5e-4 2e-6,7.4174 c 0,1.4308 -0.846416,2.5826 -1.897793,2.5826 h -2.204414 c -1.051377,0 -1.897793,-1.1518 -1.897793,-2.5826 v -1.4174 h -2.418506 c -0.876148,0 -1.581494,-0.7039 -1.581494,-1.5782 v -1.3017 -3.1196 m -4,-5e-4 v 2 h 4 v -4 h -4 v 2"
         style="display:inline;opacity:1;fill:#fdf6d8;fill-opacity:0.88627451;stroke:#f9f2d9;stroke-width:1.90603244;stroke-linecap:butt;stroke-linejoin:round;stroke-miterlimit:4;stroke-dasharray:none;stroke-opacity:0.92941176;filter:url(#filter8996)"
         id="rect8645-2-5-3" />
      <path
         d="m 48.5,1021.8622 v 2 h 4 v -4 h -4 v 2"
         style="display:inline;opacity:1;fill:url(#linearGradient9006);fill-opacity:1;stroke:url(#linearGradient9008);stroke-width:1;stroke-linecap:butt;stroke-linejoin:round;stroke-miterlimit:4;stroke-dasharray:none;stroke-opacity:1"
         id="path8722-7" />
      <path
         d="m 62.499998,1021.8622 2e-6,-7.4174 c 0,-1.4308 -0.846416,-2.5826 -1.897793,-2.5826 h -2.204414 c -1.051377,0 -1.897793,1.1518 -1.897793,2.5826 v 1.4174 h -2.418506 c -0.876148,0 -1.581494,0.7039 -1.581494,1.5782 v 1.3017 3.1196 m 9.999998,5e-4 2e-6,7.4174 c 0,1.4308 -0.846416,2.5826 -1.897793,2.5826 h -2.204414 c -1.051377,0 -1.897793,-1.1518 -1.897793,-2.5826 v -1.4174 h -2.418506 c -0.876148,0 -1.581494,-0.7039 -1.581494,-1.5782 v -1.3017 -3.1196"
         style="display:inline;opacity:1;fill:url(#linearGradient8761);fill-opacity:1;stroke:#4d73ae;stroke-width:1;stroke-linecap:butt;stroke-linejoin:round;stroke-miterlimit:4;stroke-dasharray:none;stroke-opacity:1"
         id="rect8645-3" />
      <path
         d="m 70.5,1023.8622 -10e-7,0.7084 c 0,0.7154 -0.630695,1.3084 -1.581494,1.2913 -0.950799,-0.017 -1.418505,0 -1.418505,0 v 0.1348 c 0,1.0333 -0.846416,1.865 -1.897793,1.8652 l -1.204207,2e-4 c -0.993831,2e-4 -0.897896,0.3654 -0.897896,-1.9999 v -8 c 0,-2.3654 -0.149817,-2 0.897896,-2 h 1.204207 c 1.051377,0 1.897793,0.8319 1.897793,1.8652 v 0.1348 h 1.418506 c 0.876148,0 1.581494,0.5759 1.581494,1.2913 v 1.7087 z m 0.01,-3 h 3.99 v 3 h -3.7903"
         style="display:inline;opacity:1;fill:url(#linearGradient9010);fill-opacity:1;stroke:url(#linearGradient9012);stroke-width:1;stroke-linecap:butt;stroke-linejoin:round;stroke-miterlimit:4;stroke-dasharray:none;stroke-opacity:1"
         id="rect8645-2-5" />
      <path
         id="path8861"
         d="m 64.018476,1016.5423 -0.152427,10.8222 c 2.375507,-3.3036 3.484206,-4.2052 2.972286,-9.2217 0.305009,-1.654 -1.117834,-1.7529 -2.819859,-1.6005 z"
         style="opacity:0.63899997;fill:#ffffff;fill-opacity:1;stroke:none;stroke-width:1px;stroke-linecap:butt;stroke-linejoin:miter;stroke-opacity:1;filter:url(#filter8871)" />
      <ellipse
         ry="1.9815242"
         rx="1.9053118"
         cy="1014.637"
         cx="59.521938"
         id="path8817"
         style="opacity:0.70499998;fill:#ffffff;fill-opacity:1;stroke:none;stroke-width:1;stroke-linecap:butt;stroke-linejoin:round;stroke-miterlimit:4;stroke-dasharray:none;stroke-opacity:1;filter:url(#filter8835)" />
      <path
         id="path8875"
         d="m 70.953811,1023.4014 v -1.8291 l 2.972286,-0.076 z"
         style="opacity:0.86199999;fill:#ffffff;fill-opacity:1;stroke:none;stroke-width:1px;stroke-linecap:butt;stroke-linejoin:miter;stroke-opacity:1;filter:url(#filter8881)" />
      <path
         id="path8861-7"
         d="m 53.924652,1016.631 -0.152427,10.8222 c 2.375507,-3.3036 3.484206,-4.2052 2.972286,-9.2217 0.305009,-1.654 -1.117834,-1.7529 -2.819859,-1.6005 z"
         style="display:inline;opacity:0.48500001;fill:#ffffff;fill-opacity:1;stroke:none;stroke-width:1px;stroke-linecap:butt;stroke-linejoin:miter;stroke-opacity:1;filter:url(#filter8871-1)" />
    </g>
  </g>
</svg>
