<?xml version="1.0" encoding="UTF-8" standalone="no"?>
<!-- Created with Inkscape (http://www.inkscape.org/) -->

<svg
   width="7"
   height="8"
   id="svg2"
   version="1.1"
   xmlns="http://www.w3.org/2000/svg"
   xmlns:svg="http://www.w3.org/2000/svg"
   xmlns:rdf="http://www.w3.org/1999/02/22-rdf-syntax-ns#"
   xmlns:cc="http://creativecommons.org/ns#"
   xmlns:dc="http://purl.org/dc/elements/1.1/">
  <defs
     id="defs4" />
  <metadata
     id="metadata7">
    <rdf:RDF>
      <cc:Work
         rdf:about="">
        <dc:format>image/svg+xml</dc:format>
        <dc:type
           rdf:resource="http://purl.org/dc/dcmitype/StillImage" />
        <dc:title />
      </cc:Work>
    </rdf:RDF>
  </metadata>
  <g
     id="layer1"
     transform="translate(0,-1044.3622)">
    <g
       id="g4151"
       transform="translate(8.1038003,0.0947018)">
      <g
         id="g4156">
        <rect
           y="1044.3622"
           x="-1.1130133e-007"
           height="8"
           width="7"
           id="rect4244"
           style="fill:#ffffff;fill-opacity:1;stroke:none;display:inline"
           transform="translate(-8.1038003,-0.0947018)" />
        <path
           style="fill:none;fill-rule:evenodd;stroke:#17325d;stroke-width:1px;stroke-linecap:butt;stroke-linejoin:miter;stroke-opacity:1"
           d="m -6.5178571,1045.822 c -0.5103111,0.01 -1.0825893,0.5723 -1.0825893,1.0826 0,1.0603 0,1.9847 0,2.9353 0,0.4972 0.5575001,1.0547 1.0546875,1.0547 0.5182457,0 1.0993304,-0.5812 1.0993304,-1.0994 0,-1.2647 0,-1.9534 0,-2.9464 0,-0.4947 -0.5767875,-1.0321 -1.0714286,-1.0268 z"
           id="path4147" />
        <path
           style="fill:none;fill-rule:evenodd;stroke:#17325d;stroke-width:1px;stroke-linecap:butt;stroke-linejoin:miter;stroke-opacity:1"
           d="m -3.7619539,1047.2282 c 0,0 1.1607143,-1.8524 1.1607143,-1.3839 l 0,5.4235"
           id="path4149" />
      </g>
    </g>
  </g>
</svg>
